<svg width="38" height="38" viewBox="0 0 38 38" fill="none" xmlns="http://www.w3.org/2000/svg">
<circle cx="19.5" cy="19.5" r="13.5" fill="#8D7DFF" fill-opacity="0.6"/>
<path d="M19.0078 20.5879C21.6311 20.5879 23.7578 22.7146 23.7578 25.3379C23.7578 26.6824 23.1992 27.8964 22.3015 28.7606L19.2771 31.6706L23.7578 31.6712V34.8379H14.2578L14.2563 32.1076L20.1057 26.4788C20.4051 26.1903 20.5911 25.7858 20.5911 25.3379C20.5911 24.4634 19.8823 23.7546 19.0078 23.7546C18.1333 23.7546 17.4245 24.4634 17.4245 25.3379H14.2578C14.2578 22.7146 16.3844 20.5879 19.0078 20.5879ZM28.5078 20.5879V26.9212H31.6745V20.5879H34.8411V34.8379H31.6745V30.0879H25.3411V20.5879H28.5078ZM6.34111 19.0046C6.34111 23.005 8.19557 26.5723 11.0917 28.8936L11.0911 32.7197C6.35852 29.9821 3.17444 24.8651 3.17444 19.0046H6.34111ZM19.0078 3.17126C27.2179 3.17126 33.9684 9.42008 34.7629 17.4211L31.5765 17.4214C30.7973 11.173 25.4672 6.33793 19.0078 6.33793C14.654 6.33793 10.8132 8.53455 8.53326 11.88L12.6744 11.8796V15.0463H3.17444V5.54626H6.34111L6.34093 9.5033C9.22964 5.65829 13.8283 3.17126 19.0078 3.17126Z" fill="black"/>
</svg>
