<svg width="20" height="20" viewBox="0 0 20 20" fill="#FE6A00" xmlns="http://www.w3.org/2000/svg">
    <g id="Vector" filter="url(#filter0_d_310_17840)">
        <path d="M17.0324 4.00041C16.7882 4.00768 16.5565 4.10973 16.3863 4.28492L6.71272 13.9585L3.61792 10.8637C3.53132 10.7735 3.42759 10.7015 3.31281 10.6518C3.19803 10.6022 3.07451 10.576 2.94948 10.5748C2.82444 10.5735 2.70041 10.5972 2.58465 10.6444C2.46888 10.6917 2.36371 10.7616 2.27529 10.85C2.18688 10.9384 2.11699 11.0436 2.06973 11.1594C2.02247 11.2751 1.99878 11.3992 2.00005 11.5242C2.00132 11.6492 2.02753 11.7727 2.07714 11.8875C2.12674 12.0023 2.19876 12.106 2.28895 12.1926L6.04823 15.9519C6.22449 16.1281 6.4635 16.2271 6.71272 16.2271C6.96193 16.2271 7.20094 16.1281 7.3772 15.9519L17.7152 5.61389C17.851 5.48188 17.9438 5.31192 17.9813 5.12629C18.0189 4.94066 17.9995 4.74801 17.9257 4.57359C17.8519 4.39917 17.7271 4.25112 17.5677 4.14884C17.4083 4.04656 17.2217 3.99483 17.0324 4.00041Z" />
    </g>
    <defs>
        <filter id="filter0_d_310_17840" x="2" y="4" width="16" height="13.2271" filterUnits="userSpaceOnUse" color-interpolation-filters="sRGB">
            <feFlood flood-opacity="0" result="BackgroundImageFix"/>
            <feColorMatrix in="SourceAlpha" type="matrix" values="0 0 0 0 0 0 0 0 0 0 0 0 0 0 0 0 0 0 127 0" result="hardAlpha"/>
            <feOffset dy="1"/>
            <feComposite in2="hardAlpha" operator="out"/>
            <feColorMatrix type="matrix" values="0 0 0 0 0 0 0 0 0 0 0 0 0 0 0 0 0 0 1 0"/>
            <feBlend mode="normal" in2="BackgroundImageFix" result="effect1_dropShadow_310_17840"/>
            <feBlend mode="normal" in="SourceGraphic" in2="effect1_dropShadow_310_17840" result="shape"/>
        </filter>
    </defs>
</svg>
