<svg width="18" height="18" viewBox="0 0 18 18" fill="white" xmlns="http://www.w3.org/2000/svg">
    <path id="Vector" fill-rule="evenodd" clip-rule="evenodd" d="M4.54534 12.1821C4.19387 12.5336 4.19387 13.1034 4.54534 13.4549C4.89681 13.8064 5.46666 13.8064 5.81813 13.4549L9.00012 10.2729L12.1821 13.4549C12.5336 13.8064 13.1034 13.8064 13.4549 13.4549C13.8064 13.1034 13.8064 12.5336 13.4549 12.1821L10.2729 9.00011L13.4549 5.81813C13.8064 5.46666 13.8064 4.89681 13.4549 4.54534C13.1034 4.19387 12.5336 4.19387 12.1821 4.54534L9.00012 7.72732L5.81815 4.54534C5.46667 4.19387 4.89683 4.19387 4.54535 4.54534C4.19388 4.89681 4.19388 5.46666 4.54535 5.81813L7.72733 9.00011L4.54534 12.1821Z"/>
</svg>
