<svg width="31" height="31" viewBox="0 0 31 31" fill="none" xmlns="http://www.w3.org/2000/svg">
<path d="M27.7569 13.0519H26.75V13H15.5V18H22.5644C21.5338 20.9106 18.7644 23 15.5 23C11.3581 23 8 19.6419 8 15.5C8 11.3581 11.3581 8 15.5 8C17.4119 8 19.1513 8.72125 20.4756 9.89938L24.0113 6.36375C21.7788 4.28313 18.7925 3 15.5 3C8.59688 3 3 8.59688 3 15.5C3 22.4031 8.59688 28 15.5 28C22.4031 28 28 22.4031 28 15.5C28 14.6619 27.9138 13.8438 27.7569 13.0519Z" fill="#FFC107"/>
<path d="M4.44128 9.68188L8.54816 12.6938C9.65941 9.9425 12.3507 8 15.5 8C17.4119 8 19.1513 8.72125 20.4757 9.89937L24.0113 6.36375C21.7788 4.28312 18.7925 3 15.5 3C10.6988 3 6.53503 5.71062 4.44128 9.68188Z" fill="#FF3D00"/>
<path d="M15.5 27.9999C18.7287 27.9999 21.6625 26.7643 23.8806 24.7549L20.0118 21.4812C18.7147 22.4677 17.1296 23.0012 15.5 22.9999C12.2487 22.9999 9.48808 20.9268 8.44808 18.0337L4.37183 21.1743C6.44058 25.2224 10.6418 27.9999 15.5 27.9999Z" fill="#4CAF50"/>
<path d="M27.7569 13.0519H26.75V13H15.5V18H22.5644C22.0714 19.3853 21.1833 20.5957 20.01 21.4819L20.0119 21.4806L23.8806 24.7544C23.6069 25.0031 28 21.75 28 15.5C28 14.6619 27.9138 13.8438 27.7569 13.0519Z" fill="#1976D2"/>
<path d="M18.9375 9.5625L18.3506 10.6663C18.6244 10.8118 18.9425 10.8503 19.2432 10.7745C19.5438 10.6986 19.8056 10.5137 19.9775 10.2556L18.9375 9.5625ZM22.0625 4.875L23.1025 5.56875C23.2671 5.32184 23.3385 5.02441 23.304 4.72967C23.2694 4.43493 23.1311 4.1621 22.9137 3.96L22.0625 4.875ZM28 13.625L29.2475 13.5419C29.2264 13.2254 29.0858 12.9288 28.8542 12.7121C28.6225 12.4954 28.3172 12.3749 28 12.375V13.625ZM15.5 13.625V12.375C15.1685 12.375 14.8505 12.5067 14.6161 12.7411C14.3817 12.9755 14.25 13.2935 14.25 13.625H15.5ZM15.5 18H14.25C14.25 18.3315 14.3817 18.6495 14.6161 18.8839C14.8505 19.1183 15.1685 19.25 15.5 19.25V18ZM21.4375 18H22.6875C22.6875 17.6685 22.5558 17.3505 22.3214 17.1161C22.087 16.8817 21.769 16.75 21.4375 16.75V18ZM19.9775 10.2556L23.1025 5.56875L21.0225 4.18125L17.8975 8.86875L19.9775 10.2556ZM22.0625 4.875C22.3479 4.57148 22.6312 4.26605 22.9125 3.95875L22.9119 3.9575C22.9091 3.95483 22.9062 3.95233 22.9031 3.95C22.8865 3.93444 22.8695 3.91943 22.8519 3.905C22.6916 3.7721 22.5239 3.64856 22.3494 3.535C21.8848 3.23743 21.393 2.98463 20.8806 2.78C19.5738 2.2475 17.6156 1.75 14.875 1.75V4.25C17.3062 4.25 18.9425 4.69 19.9369 5.095C20.3021 5.23974 20.6528 5.41866 20.9844 5.62937C21.0675 5.68321 21.1478 5.7412 21.225 5.80312L21.2238 5.80188L21.2188 5.7975C21.2175 5.79627 21.2162 5.79502 21.215 5.79375L21.2131 5.79187C21.4943 5.48447 21.7775 5.17884 22.0625 4.875ZM14.875 1.75C11.9412 1.75 8.68125 3.06313 6.1575 5.35625C3.61125 7.66875 1.75 11.0375 1.75 15.1875H4.25C4.25 11.8369 5.74 9.1125 7.83813 7.20625C9.95875 5.28125 12.6356 4.25 14.875 4.25V1.75ZM1.75 15.1875C1.75 23.75 8.62063 29.25 15.5 29.25V26.75C9.87938 26.75 4.25 22.25 4.25 15.1875H1.75ZM28 13.625V12.375H15.5V14.875H28V13.625ZM14.25 13.625V18H16.75V13.625H14.25ZM15.5 19.25H21.4375V16.75H15.5V19.25ZM20.1875 18C20.1875 18.4363 19.8612 19.2081 18.9881 19.925C18.155 20.6087 16.9481 21.125 15.5 21.125V23.625C17.5519 23.625 19.3137 22.8919 20.5744 21.8569C21.795 20.8556 22.6875 19.4387 22.6875 18H20.1875ZM15.5 21.125C11.9894 21.125 9.875 18.1225 9.875 15.1875H7.375C7.375 19.1275 10.2606 23.625 15.5 23.625V21.125ZM9.875 15.1875C9.875 12.4775 12.4025 9.875 15.5 9.875V7.375C11.0975 7.375 7.375 11.0225 7.375 15.1875H9.875ZM15.5 9.875C16.75 9.875 17.7781 10.3619 18.3506 10.6663L19.5244 8.45875C18.8469 8.09875 17.3744 7.375 15.5 7.375V9.875ZM15.5 29.25C19.045 29.25 23.2875 27.805 26.175 24.0781L24.2 22.5469C21.8675 25.5556 18.4188 26.75 15.5 26.75V29.25ZM26.175 24.0781C28.0738 21.6287 29.5831 18.5844 29.2475 13.5419L26.7525 13.7081C27.0419 18.0413 25.7887 20.4963 24.2 22.5469L26.175 24.0781Z" fill="black"/>
</svg>
