<svg viewBox="0 0 45 45" fill="black" xmlns="http://www.w3.org/2000/svg">
<path d="M23.4059 0.935965C22.7446 1.35068 22.3894 2.26878 22.365 3.81366C22.316 5.87679 21.9263 7.13546 20.747 9.06553C18.8523 12.1655 16.4785 14.155 13.2113 15.3993L12.2292 15.75L11.681 13.909C11.2514 12.5321 10.9995 12.0435 10.6442 11.9349C9.96299 11.7376 1.38041 15.1497 0.877089 15.8408C0.0480862 16.9564 0.186452 17.904 2.18666 25.0752C3.24356 28.8163 4.69561 34.2749 5.42168 37.2609C6.16749 40.2173 6.97249 42.9564 7.17985 43.3513C7.44646 43.7856 8.00919 44.1606 8.72491 44.4023C9.71211 44.718 10.0428 44.7031 11.5678 44.2439C15.2694 43.1179 16.9474 42.397 17.3718 41.696C17.7813 41.0494 17.806 41.0444 25.6041 39.4834C38.1404 36.9738 40.7265 36.0455 40.9828 33.9922C41.0567 33.3357 40.9826 32.8372 40.7111 32.3783C40.3605 31.7811 40.3704 31.7021 41.1057 31.2726C42.3642 30.5073 42.7243 29.4856 42.27 27.9852C41.9737 27.0179 41.9638 26.7119 42.2105 26.6625C42.8275 26.539 43.9624 24.7718 44.0807 23.8241C44.1546 23.296 44.0063 22.1707 43.7841 21.3168C43.4532 20.0484 43.2211 19.6585 42.6238 19.2391L41.8834 18.7457L42.8111 17.3536C44.3703 15.0138 44.0244 12.7731 42.0649 12.2157C40.594 11.7915 36.8231 12.0587 33.5311 12.7947C31.8383 13.1849 30.4613 13.4862 30.4563 13.4615C30.4563 13.4615 30.555 13.0568 30.6881 12.5681C30.8213 12.0795 30.8952 10.9097 30.8555 9.94231C30.7019 6.73907 28.2184 2.02591 26.2193 1.14277C25.1235 0.669135 23.9784 0.590366 23.4059 0.935965ZM26.042 2.94927C27.6216 4.30137 28.535 6.04352 28.9106 8.56065C29.1923 10.4806 29.1825 10.9445 28.6202 13.0078C27.7274 16.2408 28.0581 16.6109 30.7479 15.4308C32.7072 14.5766 38.9062 13.4897 40.7621 13.6572C41.7295 13.7458 41.9862 13.8741 42.1442 14.4071C42.4109 15.2264 42.036 16.5591 41.3254 17.2404C41.049 17.5267 40.1509 18.1685 39.3711 18.6326C37.8165 19.5854 37.4218 20.1778 38.0339 20.6713C38.3399 20.918 38.7447 20.8883 39.9538 20.5179L41.4789 20.0586L42.0614 20.789C42.4662 21.2726 42.644 21.776 42.659 22.4917C42.7086 24.0218 42.0326 25.0041 40.5273 25.6904C38.2176 26.7175 37.9611 27.7441 40.0144 27.8721C40.9522 27.941 41.0953 28.015 41.1349 28.5974C41.1942 29.1502 40.9672 29.4267 39.7137 30.2166C38.0604 31.3176 37.8828 31.8408 38.9836 32.4674C39.8524 32.9608 40.0647 33.637 39.5169 34.106C38.1302 35.2562 31.1663 37.1379 23.378 38.4917L16.9272 39.6034L16.9715 38.9272C17.0257 38.557 16.9269 37.8068 16.7935 37.2688C16.6602 36.7308 15.6772 32.0766 14.6496 26.9437L12.7231 17.5761L14.9341 16.6971C18.2309 15.3442 21.9174 12.3476 22.9436 10.1658C23.812 8.34931 24.8182 4.52891 24.744 3.38877C24.7142 2.72739 24.7586 2.17952 24.8819 2.15482C24.9807 2.13506 25.5138 2.49034 26.042 2.94927ZM12.3313 35.2361C13.1556 35.6357 13.3186 36.0651 13.1362 37.3336C12.7911 39.7127 9.89372 38.958 9.37502 36.3669C9.1873 35.4291 9.3156 35.3008 10.5248 35.0587C11.2158 34.9204 11.8179 34.9795 12.3313 35.2361Z" />
</svg>
