<svg width="18" height="18" viewBox="0 0 18 18" fill="white" xmlns="http://www.w3.org/2000/svg">
    <path id="Vector" fill-rule="evenodd" clip-rule="evenodd" d="M2.7002 4.1001C2.7002 3.82396 2.92405 3.6001 3.2002 3.6001H14.8002C15.0763 3.6001 15.3002 3.82396 15.3002 4.1001V4.9001C15.3002 5.17624 15.0763 5.4001 14.8002 5.4001H3.20019C2.92405 5.4001 2.7002 5.17624 2.7002 4.9001V4.1001ZM2.7002 8.6001C2.7002 8.32396 2.92405 8.1001 3.2002 8.1001H14.8002C15.0763 8.1001 15.3002 8.32396 15.3002 8.6001V9.4001C15.3002 9.67624 15.0763 9.9001 14.8002 9.9001H3.20019C2.92405 9.9001 2.7002 9.67624 2.7002 9.4001V8.6001ZM3.2002 12.6001C2.92405 12.6001 2.7002 12.824 2.7002 13.1001V13.9001C2.7002 14.1762 2.92405 14.4001 3.20019 14.4001H14.8002C15.0763 14.4001 15.3002 14.1762 15.3002 13.9001V13.1001C15.3002 12.824 15.0763 12.6001 14.8002 12.6001H3.2002Z"/>
</svg>
