<svg width="20" height="20" viewBox="0 0 20 20" fill="#F0E6FF" xmlns="http://www.w3.org/2000/svg">
    <path id="Vector" fill-rule="evenodd" clip-rule="evenodd" d="M3.5 5C2.67157 5 2 5.67157 2 6.5V15.5C2 16.3284 2.67157 17 3.5 17H16.5C17.3284 17 18 16.3284 18 15.5V6.5C18 5.67157 17.3284 5 16.5 5H3.5ZM4.83563 7.4727C4.54441 7.28738 4.15811 7.37323 3.97279 7.66444C3.78747 7.95565 3.87332 8.34196 4.16453 8.52728L8.59078 11.344C9.45064 11.8912 10.5495 11.8912 11.4094 11.344L15.8356 8.52728C16.1268 8.34196 16.2127 7.95565 16.0274 7.66444C15.842 7.37323 15.4557 7.28738 15.1645 7.4727L10.7383 10.2894C10.2879 10.576 9.71228 10.576 9.26187 10.2894L4.83563 7.4727Z"/>
</svg>
