<svg width="38" height="38" viewBox="0 0 38 38" fill="none" xmlns="http://www.w3.org/2000/svg">
<g clip-path="url(#clip0_586_527)">
<ellipse cx="19" cy="15.5" rx="12" ry="12.5" fill="#FAA58E"/>
<mask id="path-2-inside-1_586_527" fill="white">
<path d="M18.2084 4.75C19.7649 4.75012 21.2785 5.25968 22.5182 6.20087C23.7579 7.14206 24.6554 8.46313 25.0737 9.96233L25.1561 10.2869L28.1169 9.5475C28.3333 9.49363 28.5587 9.48609 28.7782 9.52537C28.9977 9.56465 29.2065 9.64986 29.3908 9.77542C29.5751 9.90099 29.7308 10.0641 29.8477 10.254C29.9646 10.4439 30.0401 10.6564 30.0692 10.8775L30.0834 11.0833V13.9492C30.976 14.805 31.7076 15.8143 32.2431 16.929L32.4616 17.4167H33.2501C33.6379 17.4167 34.0122 17.5591 34.302 17.8168C34.5918 18.0745 34.777 18.4296 34.8223 18.8148L34.8334 19V23.75C34.8335 24.0106 34.7692 24.2672 34.6463 24.497C34.5233 24.7268 34.3456 24.9227 34.1288 25.0673L33.9578 25.1655L32.1085 26.0918C31.3514 27.5565 30.2548 28.8187 28.9102 29.773L28.5001 30.0485V31.6667C28.5 32.0545 28.3576 32.4288 28.0999 32.7186C27.8422 33.0084 27.4871 33.1935 27.102 33.2389L26.9167 33.25H22.1667C21.7789 33.2499 21.4046 33.1076 21.1148 32.8499C20.825 32.5922 20.6399 32.2371 20.5945 31.8519L20.5834 31.6667H19.0001C19 32.0545 18.8576 32.4288 18.5999 32.7186C18.3422 33.0084 17.9871 33.1935 17.602 33.2389L17.4167 33.25H12.6667C12.2789 33.2499 11.9046 33.1076 11.6148 32.8499C11.325 32.5922 11.1399 32.2371 11.0945 31.8519L11.0834 31.6667V30.0485C9.93959 29.3172 8.95154 28.3671 8.17605 27.2528C7.40056 26.1385 6.85291 24.8819 6.56458 23.5553C5.63093 23.2774 4.8052 22.7193 4.19917 21.9567C3.59313 21.1941 3.23604 20.2636 3.17625 19.2913L3.16675 19V18.2083C3.1672 17.8048 3.32172 17.4166 3.59876 17.1232C3.87579 16.8297 4.25442 16.6531 4.65729 16.6295C5.06016 16.6058 5.45685 16.7369 5.76632 16.9959C6.07578 17.2549 6.27467 17.6223 6.32233 18.0231L6.33341 18.2083V19C6.33341 19.2343 6.38408 19.4576 6.47591 19.6571C6.71759 18.2316 7.2567 16.873 8.05818 15.6697C8.85966 14.4664 9.90554 13.4454 11.1277 12.673C11.0154 11.6763 11.1148 10.667 11.4194 9.71137C11.724 8.75569 12.2269 7.87509 12.8953 7.12719C13.5637 6.37929 14.3825 5.78094 15.298 5.37129C16.2136 4.96165 17.2054 4.74993 18.2084 4.75ZM26.9167 13.11L22.5499 14.2025L22.3599 14.2389L22.1667 14.25H16.6251C15.0241 14.2489 13.4695 14.7871 12.2118 15.7777C10.9541 16.7683 10.0667 18.1536 9.6926 19.7102C9.31853 21.2669 9.47962 22.9041 10.1499 24.358C10.8202 25.8119 11.9605 26.9977 13.3872 27.7242C13.617 27.8417 13.8147 28.0136 13.9629 28.225C14.111 28.4364 14.2053 28.6808 14.2374 28.937L14.2501 29.1333V30.0833H15.8334C15.8335 29.6955 15.9758 29.3212 16.2335 29.0314C16.4912 28.7416 16.8464 28.5565 17.2315 28.5111L17.4167 28.5H22.1667C22.5546 28.5001 22.9289 28.6424 23.2187 28.9001C23.5085 29.1578 23.6936 29.5129 23.739 29.8981L23.7501 30.0833H25.3334V29.1333C25.3336 28.8418 25.4142 28.5559 25.5665 28.3073C25.7187 28.0586 25.9367 27.8568 26.1963 27.7242C27.6492 26.9804 28.8045 25.7626 29.4707 24.2725C29.5894 24.006 29.7795 23.7774 30.0201 23.6123L30.2085 23.5014L31.6667 22.7715V20.5833H31.339C30.9942 20.5832 30.6589 20.4706 30.384 20.2626C30.1091 20.0545 29.9096 19.7624 29.8158 19.4307C29.4198 18.0378 28.609 16.7985 27.4915 15.8777C27.1814 15.6215 26.9805 15.2569 26.9294 14.858L26.9167 14.6569V13.1116V13.11ZM25.3334 17.4167C25.7533 17.4167 26.1561 17.5835 26.453 17.8804C26.7499 18.1773 26.9167 18.5801 26.9167 19C26.9167 19.4199 26.7499 19.8227 26.453 20.1196C26.1561 20.4165 25.7533 20.5833 25.3334 20.5833C24.9135 20.5833 24.5108 20.4165 24.2138 20.1196C23.9169 19.8227 23.7501 19.4199 23.7501 19C23.7501 18.5801 23.9169 18.1773 24.2138 17.8804C24.5108 17.5835 24.9135 17.4167 25.3334 17.4167ZM18.2084 7.91667C17.2494 7.91666 16.323 8.26484 15.6013 8.8965C14.8797 9.52815 14.4119 10.4003 14.2849 11.3509C15.0522 11.1727 15.8374 11.083 16.6251 11.0833H21.972L22.0828 11.0564C21.8951 10.1681 21.4076 9.37133 20.7022 8.79969C19.9968 8.22805 19.1164 7.91629 18.2084 7.91667Z"/>
</mask>
<path d="M18.2084 4.75C19.7649 4.75012 21.2785 5.25968 22.5182 6.20087C23.7579 7.14206 24.6554 8.46313 25.0737 9.96233L25.1561 10.2869L28.1169 9.5475C28.3333 9.49363 28.5587 9.48609 28.7782 9.52537C28.9977 9.56465 29.2065 9.64986 29.3908 9.77542C29.5751 9.90099 29.7308 10.0641 29.8477 10.254C29.9646 10.4439 30.0401 10.6564 30.0692 10.8775L30.0834 11.0833V13.9492C30.976 14.805 31.7076 15.8143 32.2431 16.929L32.4616 17.4167H33.2501C33.6379 17.4167 34.0122 17.5591 34.302 17.8168C34.5918 18.0745 34.777 18.4296 34.8223 18.8148L34.8334 19V23.75C34.8335 24.0106 34.7692 24.2672 34.6463 24.497C34.5233 24.7268 34.3456 24.9227 34.1288 25.0673L33.9578 25.1655L32.1085 26.0918C31.3514 27.5565 30.2548 28.8187 28.9102 29.773L28.5001 30.0485V31.6667C28.5 32.0545 28.3576 32.4288 28.0999 32.7186C27.8422 33.0084 27.4871 33.1935 27.102 33.2389L26.9167 33.25H22.1667C21.7789 33.2499 21.4046 33.1076 21.1148 32.8499C20.825 32.5922 20.6399 32.2371 20.5945 31.8519L20.5834 31.6667H19.0001C19 32.0545 18.8576 32.4288 18.5999 32.7186C18.3422 33.0084 17.9871 33.1935 17.602 33.2389L17.4167 33.25H12.6667C12.2789 33.2499 11.9046 33.1076 11.6148 32.8499C11.325 32.5922 11.1399 32.2371 11.0945 31.8519L11.0834 31.6667V30.0485C9.93959 29.3172 8.95154 28.3671 8.17605 27.2528C7.40056 26.1385 6.85291 24.8819 6.56458 23.5553C5.63093 23.2774 4.8052 22.7193 4.19917 21.9567C3.59313 21.1941 3.23604 20.2636 3.17625 19.2913L3.16675 19V18.2083C3.1672 17.8048 3.32172 17.4166 3.59876 17.1232C3.87579 16.8297 4.25442 16.6531 4.65729 16.6295C5.06016 16.6058 5.45685 16.7369 5.76632 16.9959C6.07578 17.2549 6.27467 17.6223 6.32233 18.0231L6.33341 18.2083V19C6.33341 19.2343 6.38408 19.4576 6.47591 19.6571C6.71759 18.2316 7.2567 16.873 8.05818 15.6697C8.85966 14.4664 9.90554 13.4454 11.1277 12.673C11.0154 11.6763 11.1148 10.667 11.4194 9.71137C11.724 8.75569 12.2269 7.87509 12.8953 7.12719C13.5637 6.37929 14.3825 5.78094 15.298 5.37129C16.2136 4.96165 17.2054 4.74993 18.2084 4.75ZM26.9167 13.11L22.5499 14.2025L22.3599 14.2389L22.1667 14.25H16.6251C15.0241 14.2489 13.4695 14.7871 12.2118 15.7777C10.9541 16.7683 10.0667 18.1536 9.6926 19.7102C9.31853 21.2669 9.47962 22.9041 10.1499 24.358C10.8202 25.8119 11.9605 26.9977 13.3872 27.7242C13.617 27.8417 13.8147 28.0136 13.9629 28.225C14.111 28.4364 14.2053 28.6808 14.2374 28.937L14.2501 29.1333V30.0833H15.8334C15.8335 29.6955 15.9758 29.3212 16.2335 29.0314C16.4912 28.7416 16.8464 28.5565 17.2315 28.5111L17.4167 28.5H22.1667C22.5546 28.5001 22.9289 28.6424 23.2187 28.9001C23.5085 29.1578 23.6936 29.5129 23.739 29.8981L23.7501 30.0833H25.3334V29.1333C25.3336 28.8418 25.4142 28.5559 25.5665 28.3073C25.7187 28.0586 25.9367 27.8568 26.1963 27.7242C27.6492 26.9804 28.8045 25.7626 29.4707 24.2725C29.5894 24.006 29.7795 23.7774 30.0201 23.6123L30.2085 23.5014L31.6667 22.7715V20.5833H31.339C30.9942 20.5832 30.6589 20.4706 30.384 20.2626C30.1091 20.0545 29.9096 19.7624 29.8158 19.4307C29.4198 18.0378 28.609 16.7985 27.4915 15.8777C27.1814 15.6215 26.9805 15.2569 26.9294 14.858L26.9167 14.6569V13.1116V13.11ZM25.3334 17.4167C25.7533 17.4167 26.1561 17.5835 26.453 17.8804C26.7499 18.1773 26.9167 18.5801 26.9167 19C26.9167 19.4199 26.7499 19.8227 26.453 20.1196C26.1561 20.4165 25.7533 20.5833 25.3334 20.5833C24.9135 20.5833 24.5108 20.4165 24.2138 20.1196C23.9169 19.8227 23.7501 19.4199 23.7501 19C23.7501 18.5801 23.9169 18.1773 24.2138 17.8804C24.5108 17.5835 24.9135 17.4167 25.3334 17.4167ZM18.2084 7.91667C17.2494 7.91666 16.323 8.26484 15.6013 8.8965C14.8797 9.52815 14.4119 10.4003 14.2849 11.3509C15.0522 11.1727 15.8374 11.083 16.6251 11.0833H21.972L22.0828 11.0564C21.8951 10.1681 21.4076 9.37133 20.7022 8.79969C19.9968 8.22805 19.1164 7.91629 18.2084 7.91667Z" stroke="black" stroke-width="3.16667" mask="url(#path-2-inside-1_586_527)"/>
</g>
<defs>
<clipPath id="clip0_586_527">
<rect width="38" height="38" fill="white"/>
</clipPath>
</defs>
</svg>
