<svg width="20" height="20" viewBox="0 0 20 20" fill="black" xmlns="http://www.w3.org/2000/svg">
    <path id="Ellipse 821" d="M16.2499 16.2499C16.2499 15.3744 15.6716 15.7575 15.3575 14.9487C15.0434 14.1399 14.5831 13.4049 14.0027 12.7859C13.4223 12.1668 12.7333 11.6758 11.975 11.3407C11.2168 11.0057 10.404 10.8333 9.58328 10.8333C8.76251 10.8333 7.94979 11.0057 7.19151 11.3407C6.43322 11.6758 5.74423 12.1668 5.16386 12.7859C4.58349 13.4049 4.12312 14.1399 3.80903 14.9487C3.49494 15.7575 3.80903 15.3744 3.80903 16.2499L10.4166 17.9166L16.2499 16.2499Z" fill="#FAE999"/>
    <path id="Vector" fill-rule="evenodd" clip-rule="evenodd" d="M13.3332 7.50008C13.3332 8.38414 12.982 9.23198 12.3569 9.8571C11.7317 10.4822 10.8839 10.8334 9.99984 10.8334C9.11578 10.8334 8.26794 10.4822 7.64281 9.8571C7.01769 9.23198 6.6665 8.38414 6.6665 7.50008C6.6665 6.61603 7.01769 5.76818 7.64281 5.14306C8.26794 4.51794 9.11578 4.16675 9.99984 4.16675C10.8839 4.16675 11.7317 4.51794 12.3569 5.14306C12.982 5.76818 13.3332 6.61603 13.3332 7.50008ZM11.6665 7.50008C11.6665 7.94211 11.4909 8.36603 11.1783 8.67859C10.8658 8.99115 10.4419 9.16675 9.99984 9.16675C9.55781 9.16675 9.13389 8.99115 8.82133 8.67859C8.50877 8.36603 8.33317 7.94211 8.33317 7.50008C8.33317 7.05805 8.50877 6.63413 8.82133 6.32157C9.13389 6.00901 9.55781 5.83341 9.99984 5.83341C10.4419 5.83341 10.8658 6.00901 11.1783 6.32157C11.4909 6.63413 11.6665 7.05805 11.6665 7.50008Z" />
    <path id="Vector_2" fill-rule="evenodd" clip-rule="evenodd" d="M10.0002 0.833252C4.93766 0.833252 0.833496 4.93742 0.833496 9.99992C0.833496 15.0624 4.93766 19.1666 10.0002 19.1666C15.0627 19.1666 19.1668 15.0624 19.1668 9.99992C19.1668 4.93742 15.0627 0.833252 10.0002 0.833252ZM2.50016 9.99992C2.50016 11.7416 3.09433 13.3449 4.09016 14.6183C4.78952 13.6998 5.69175 12.9555 6.72636 12.4435C7.76097 11.9315 8.89995 11.6656 10.0543 11.6666C11.1938 11.6655 12.3184 11.9245 13.3426 12.4239C14.3668 12.9233 15.2635 13.6499 15.9643 14.5483C16.6864 13.6013 17.1725 12.4959 17.3826 11.3237C17.5926 10.1516 17.5205 8.9462 17.1722 7.8074C16.824 6.66861 16.2095 5.62912 15.3797 4.77495C14.55 3.92077 13.5287 3.27647 12.4005 2.89534C11.2723 2.51422 10.0695 2.40723 8.89171 2.58323C7.71393 2.75923 6.59499 3.21316 5.62747 3.90746C4.65995 4.60176 3.87167 5.51648 3.32785 6.57591C2.78404 7.63535 2.50031 8.80906 2.50016 9.99992ZM10.0002 17.4999C8.27845 17.5025 6.60872 16.9102 5.2735 15.8233C5.81094 15.0539 6.52628 14.4257 7.35866 13.9922C8.19103 13.5586 9.11582 13.3326 10.0543 13.3333C10.9811 13.3325 11.8947 13.5529 12.7193 13.9761C13.5438 14.3993 14.2555 15.0131 14.7952 15.7666C13.4496 16.8888 11.7523 17.5024 10.0002 17.4999Z" />
</svg>
