<svg width="20" height="20" viewBox="0 0 20 20" fill="#F0E6FF" xmlns="http://www.w3.org/2000/svg">
    <path id="Vector" fill-rule="evenodd" clip-rule="evenodd" d="M5 8.2C5 5.37466 7.19316 3 10 3C12.8068 3 15 5.37466 15 8.2V9.08535C15.5826 9.29127 16 9.84689 16 10.5V16.5C16 17.3284 15.3284 18 14.5 18H5.5C4.67157 18 4 17.3284 4 16.5V10.5C4 9.84689 4.4174 9.29127 5 9.08535V8.2ZM13 8.2V9H7V8.2C7 6.38615 8.38856 5 10 5C11.6114 5 13 6.38615 13 8.2ZM10 15C10.8284 15 11.5 14.3284 11.5 13.5C11.5 12.6716 10.8284 12 10 12C9.17157 12 8.5 12.6716 8.5 13.5C8.5 14.3284 9.17157 15 10 15Z"/>
</svg>
