<svg width="38" height="38" viewBox="0 0 38 38" fill="none" xmlns="http://www.w3.org/2000/svg">
<circle cx="22.9583" cy="15.0416" r="11.875" fill="#FAE999"/>
<circle cx="22.9583" cy="15.0416" r="11.875" fill="#FAE999"/>
<path d="M20.6737 11.7642C21.0413 11.3965 21.4777 11.1049 21.958 10.906C22.4383 10.707 22.9531 10.6046 23.473 10.6046C23.9929 10.6046 24.5077 10.707 24.988 10.906C25.4683 11.1049 25.9047 11.3965 26.2723 11.7642C26.6399 12.1318 26.9315 12.5682 27.1305 13.0485C27.3294 13.5288 27.4318 14.0436 27.4318 14.5635C27.4318 15.0834 27.3294 15.5982 27.1305 16.0785C26.9315 16.5588 26.6399 16.9952 26.2723 17.3628C25.529 18.0999 24.5239 18.5125 23.4771 18.5104C22.4303 18.5082 21.427 18.0915 20.6867 17.3514C19.9464 16.6113 19.5294 15.6081 19.5269 14.5613C19.5245 13.5144 19.9368 12.5093 20.6737 11.7657V11.7642ZM24.5924 13.4441C24.4453 13.2971 24.2707 13.1805 24.0785 13.101C23.8863 13.0214 23.6804 12.9806 23.4724 12.9806C23.2645 12.9807 23.0585 13.0217 22.8664 13.1014C22.6743 13.181 22.4998 13.2978 22.3528 13.4449C22.2058 13.592 22.0892 13.7666 22.0097 13.9588C21.9301 14.1509 21.8893 14.3569 21.8893 14.5648C21.8894 14.7728 21.9304 14.9787 22.0101 15.1708C22.0898 15.363 22.2065 15.5375 22.3536 15.6845C22.6507 15.9814 23.0535 16.1481 23.4735 16.1479C23.8936 16.1478 24.2963 15.9808 24.5932 15.6837C24.8901 15.3866 25.0568 14.9837 25.0566 14.5637C25.0565 14.1437 24.8895 13.741 24.5924 13.4441ZM31.1886 3.97574C31.863 4.18543 32.4763 4.55603 32.9756 5.05557C33.4748 5.55512 33.8451 6.16862 34.0544 6.84316L34.3822 7.89449C34.9604 9.75463 35.0193 11.7374 34.5524 13.6286C34.0856 15.5198 33.1107 17.2474 31.7332 18.6247L30.1531 20.2049C30.9504 21.2713 31.3368 22.5892 31.2414 23.9173C31.146 25.2453 30.5753 26.4945 29.6337 27.436L27.6672 29.4041C27.4446 29.6265 27.1428 29.7514 26.8281 29.7514C26.5134 29.7514 26.2116 29.6265 25.9889 29.4041L23.4714 26.8866L23.1912 27.1668C22.9339 27.4242 22.6284 27.6283 22.2922 27.7675C21.956 27.9068 21.5957 27.9785 21.2318 27.9785C20.8679 27.9785 20.5076 27.9068 20.1714 27.7675C19.8352 27.6283 19.5297 27.4242 19.2724 27.1668L18.5013 26.3957L17.2172 28.5966C17.1258 28.7535 16.9995 28.8874 16.8481 28.9879C16.6968 29.0884 16.5244 29.1529 16.3442 29.1763C16.164 29.1997 15.9809 29.1814 15.8089 29.1229C15.6369 29.0644 15.4806 28.9672 15.3521 28.8388L9.19291 22.6797C9.06555 22.5519 8.96897 22.3968 8.91052 22.2261C8.85206 22.0554 8.83326 21.8737 8.85555 21.6947C8.87783 21.5156 8.94061 21.344 9.03912 21.1929C9.13763 21.0418 9.26928 20.9151 9.42407 20.8224L11.6154 19.5098L10.8712 18.7657C10.6137 18.5083 10.4094 18.2028 10.2699 17.8664C10.1305 17.5301 10.0588 17.1696 10.0588 16.8055C10.0588 16.4414 10.1305 16.0809 10.2699 15.7446C10.4094 15.4082 10.6137 15.1027 10.8712 14.8453L11.1562 14.5603L8.63557 12.0428C8.41319 11.8202 8.28828 11.5183 8.28828 11.2037C8.28828 10.889 8.41319 10.5872 8.63557 10.3645L10.6037 8.39641C11.5457 7.45457 12.7956 6.88379 14.1242 6.7887C15.4529 6.6936 16.7714 7.08057 17.8379 7.87866L19.4149 6.30166C20.7915 4.92504 22.5179 3.95058 24.4079 3.48347C26.2978 3.01635 28.2794 3.07434 30.1388 3.65116L31.1886 3.97733V3.97574ZM31.7871 7.54774C31.6918 7.24114 31.5235 6.9623 31.2964 6.73528C31.0694 6.50827 30.7906 6.33988 30.484 6.24466L29.4358 5.92008C27.9894 5.47109 26.4478 5.42581 24.9775 5.78913C23.5072 6.15245 22.1641 6.91056 21.0932 7.98158L12.5496 16.5252C12.5127 16.562 12.4835 16.6057 12.4635 16.6538C12.4436 16.7019 12.4333 16.7534 12.4333 16.8055C12.4333 16.8576 12.4436 16.9091 12.4635 16.9572C12.4835 17.0053 12.5127 17.049 12.5496 17.0857L20.9523 25.4869C21.0265 25.5609 21.127 25.6024 21.2318 25.6024C21.3365 25.6024 21.437 25.5609 21.5112 25.4869L30.0549 16.9448C31.1257 15.8735 31.8833 14.53 32.2461 13.0594C32.6089 11.5888 32.5629 10.047 32.1132 8.60066L31.7871 7.54774ZM10.5926 29.1238C10.8023 28.8987 10.9165 28.601 10.9111 28.2933C10.9057 27.9857 10.781 27.6922 10.5635 27.4746C10.3459 27.257 10.0524 27.1324 9.74473 27.127C9.43709 27.1215 9.13935 27.2357 8.91424 27.4455L4.99391 31.3627C4.77113 31.5854 4.64598 31.8876 4.64598 32.2026C4.64598 32.5177 4.77113 32.8198 4.99391 33.0426C5.21668 33.2653 5.51882 33.3905 5.83386 33.3905C6.14891 33.3905 6.45105 33.2653 6.67382 33.0426L10.5926 29.1238ZM7.51299 24.3675C7.73537 24.5902 7.86028 24.892 7.86028 25.2067C7.86028 25.5214 7.73537 25.8232 7.51299 26.0458L5.83466 27.7257C5.61079 27.9422 5.31088 28.062 4.99952 28.0594C4.68816 28.0569 4.39026 27.9321 4.16998 27.7121C3.94971 27.492 3.82468 27.1942 3.82183 26.8829C3.81898 26.5715 3.93853 26.2715 4.15474 26.0474L5.83307 24.3675C5.94335 24.2571 6.07429 24.1696 6.21842 24.1099C6.36254 24.0502 6.51702 24.0194 6.67303 24.0194C6.82904 24.0194 6.98352 24.0502 7.12764 24.1099C7.27177 24.1696 7.40271 24.2571 7.51299 24.3675ZM13.6674 32.2082C13.7841 32.0994 13.8777 31.9683 13.9426 31.8227C14.0075 31.677 14.0424 31.5198 14.0452 31.3603C14.048 31.2009 14.0187 31.0425 13.9589 30.8946C13.8992 30.7468 13.8103 30.6124 13.6975 30.4997C13.5848 30.3869 13.4505 30.298 13.3026 30.2383C13.1547 30.1786 12.9964 30.1492 12.8369 30.1521C12.6775 30.1549 12.5202 30.1898 12.3746 30.2547C12.2289 30.3196 12.0978 30.4132 11.9891 30.5298L10.3123 32.205C10.1026 32.4301 9.98837 32.7278 9.99379 33.0355C9.99922 33.3431 10.1239 33.6367 10.3414 33.8542C10.559 34.0718 10.8525 34.1964 11.1602 34.2019C11.4678 34.2073 11.7655 34.0931 11.9907 33.8833L13.669 32.2082H13.6674Z" fill="black"/>
</svg>
