<svg width="22" height="25" viewBox="0 0 22 25" fill="#D2ECE8" xmlns="http://www.w3.org/2000/svg">
<g id="Group">
<path id="Vector" d="M21.515 6.47144C20.1453 6.47144 18.8815 6.01769 17.8667 5.25222C16.7028 4.37472 15.8665 3.08753 15.5712 1.60394C15.4971 1.2309 15.4582 0.851739 15.455 0.471436H11.5423V11.1627L11.5376 17.0188C11.5376 18.5844 10.5181 19.9119 9.10481 20.3788C8.68148 20.5187 8.23561 20.5779 7.79043 20.5532C7.20168 20.5208 6.64996 20.3432 6.17043 20.0563C5.14996 19.446 4.45809 18.3388 4.43934 17.0722C4.40981 15.0927 6.01012 13.4788 7.98824 13.4788C8.37871 13.4788 8.75371 13.5425 9.10481 13.6583V9.68565C8.73449 9.63081 8.35762 9.60222 7.97652 9.60222C5.81137 9.60222 3.78637 10.5022 2.33887 12.1236C1.2448 13.3489 0.588555 14.9122 0.487305 16.5514C0.354649 18.7049 1.14262 20.7519 2.67074 22.2622C2.89527 22.4839 3.13105 22.6897 3.37762 22.8796C4.68777 23.8878 6.28949 24.4344 7.97652 24.4344C8.35762 24.4344 8.73449 24.4063 9.10481 24.3514C10.6807 24.118 12.1348 23.3966 13.2823 22.2622C14.6923 20.8686 15.4714 19.0185 15.4798 17.0492L15.4597 8.30425C16.1339 8.82431 16.8725 9.25506 17.6572 9.58581C18.8848 10.1038 20.1865 10.3663 21.5262 10.3658V6.4705C21.5272 6.47144 21.5159 6.47144 21.515 6.47144Z" />
</g>
</svg>
