<svg width="20" height="21" viewBox="0 0 20 21" fill="#D2ECE8" xmlns="http://www.w3.org/2000/svg">
<g id="Twitter">
<path id="Fill 1" fill-rule="evenodd" clip-rule="evenodd" d="M17.6396 5.14032C18.4889 4.60897 19.1413 3.77235 19.4499 2.76998C18.6552 3.25867 17.7758 3.60904 16.8386 3.81317C16.0928 2.97533 15.0227 2.45312 13.8454 2.45312C11.5797 2.45312 9.74251 4.37255 9.74251 6.74532C9.74251 7.07863 9.77827 7.40828 9.84664 7.71844C6.44253 7.54782 3.41477 5.83253 1.39 3.241C1.03811 3.87289 0.836757 4.60897 0.836757 5.39807C0.836757 6.88364 1.55998 8.2053 2.66269 8.96332C1.98902 8.93651 1.35612 8.75432 0.803513 8.42954V8.48865C0.803513 10.5635 2.21797 12.2958 4.09472 12.6961C3.75098 12.7936 3.3878 12.8381 3.01082 12.8381C2.74737 12.8381 2.4971 12.8204 2.24369 12.762C2.76368 14.473 4.28038 15.7154 6.07558 15.741C4.67116 16.8975 2.90231 17.5776 0.979771 17.5776C0.647326 17.5776 0.3199 17.5587 0 17.5172C1.81527 18.7408 3.96801 19.4531 6.2901 19.4531C13.8366 19.4531 17.9658 12.9125 17.9658 7.24193C17.9658 7.06096 17.9614 6.87694 17.952 6.69292C18.753 6.07992 19.4499 5.32312 20 4.46456C19.2598 4.81188 18.4733 5.03612 17.6396 5.14032Z" />
</g>
</svg>
