<svg width="24" height="17" viewBox="0 0 24 17" fill="#D2ECE8" xmlns="http://www.w3.org/2000/svg">
<g id="Group">
<path id="Vector" d="M23.0645 1.45797C22.1982 0.428134 20.5987 0.00805664 17.5441 0.00805664H6.45569C3.33112 0.00805664 1.70454 0.455231 0.841471 1.55164C0 2.62065 0 4.19575 0 6.37572V10.5307C0 14.754 0.9984 16.8983 6.45569 16.8983H17.5442C20.1931 16.8983 21.661 16.5276 22.6106 15.6188C23.5845 14.6868 24 13.1652 24 10.5307V6.37572C24 4.07675 23.9349 2.49237 23.0645 1.45797ZM15.4081 9.02687L10.3729 11.6584C10.2549 11.7202 10.123 11.7504 9.98985 11.7463C9.85674 11.7421 9.72696 11.7037 9.61306 11.6347C9.49915 11.5657 9.40497 11.4685 9.33963 11.3524C9.2743 11.2364 9.24001 11.1054 9.24008 10.9723V5.72602C9.24008 5.59305 9.27434 5.46232 9.33954 5.34643C9.40474 5.23055 9.49869 5.13341 9.61234 5.06437C9.72599 4.99534 9.8555 4.95674 9.98839 4.9523C10.1213 4.94785 10.2531 4.97771 10.3711 5.039L15.4063 7.6536C15.532 7.71886 15.6373 7.81732 15.7109 7.93829C15.7845 8.05926 15.8236 8.1981 15.8237 8.3397C15.8239 8.4813 15.7853 8.62024 15.712 8.74139C15.6387 8.86255 15.5336 8.96129 15.4081 9.02687Z" />
</g>
</svg>
