<svg width="57" height="19" viewBox="0 0 57 19" fill="none" xmlns="http://www.w3.org/2000/svg">
<g filter="url(#filter0_d_229_2099)">
<path d="M55.5998 15.1242C55.2472 14.6184 54.4668 13.1964 53.8457 11.9646C52.2134 8.69132 51.4737 7.94942 50.4964 8.58234C49.9945 8.91587 50.1522 10.0938 50.8869 11.6448C51.0686 12.0174 51.2124 12.3823 51.2048 12.4203C51.1971 12.4583 50.1309 11.6703 48.8483 10.6806C44.6783 7.44901 40.5715 5.07985 35.9625 3.24177C33.2024 2.13209 27.0045 0.922207 23.7034 0.829804C17.9027 0.688006 13.1001 1.28091 6.97373 2.95068C4.00559 3.75532 2.75129 4.19407 2.64456 4.42944C2.52253 4.74076 2.61364 4.77889 3.25557 4.82925C3.68481 4.8565 5.28075 4.58541 6.81221 4.24205C13.014 2.8839 19.6095 2.51407 26.1767 3.16608C31.8703 3.74079 36.8481 5.41608 42.5718 8.68423C44.5228 9.78888 48.4276 12.5718 49.243 13.4278C49.5882 13.774 49.5654 13.7892 48.7258 13.8373C47.4075 13.9075 46.898 14.1802 46.7678 14.8258C46.5343 15.9841 48.4778 17.028 52.1465 17.649C54.2658 18.0169 54.657 18.0365 55.2006 17.7904C55.6606 17.5669 55.8699 17.3127 56.0189 16.7697C56.206 16.1356 56.1494 15.9266 55.5998 15.1242Z" fill="black"/>
</g>
<defs>
<filter id="filter0_d_229_2099" x="0.598145" y="0.80957" width="55.5173" height="18.1443" filterUnits="userSpaceOnUse" color-interpolation-filters="sRGB">
<feFlood flood-opacity="0" result="BackgroundImageFix"/>
<feColorMatrix in="SourceAlpha" type="matrix" values="0 0 0 0 0 0 0 0 0 0 0 0 0 0 0 0 0 0 127 0" result="hardAlpha"/>
<feOffset dx="-2" dy="1"/>
<feColorMatrix type="matrix" values="0 0 0 0 1 0 0 0 0 0.731096 0 0 0 0 0.658333 0 0 0 1 0"/>
<feBlend mode="normal" in2="BackgroundImageFix" result="effect1_dropShadow_229_2099"/>
<feBlend mode="normal" in="SourceGraphic" in2="effect1_dropShadow_229_2099" result="shape"/>
</filter>
</defs>
</svg>
