<svg viewBox="0 0 546 509" fill="none" xmlns="http://www.w3.org/2000/svg" xmlns:xlink="http://www.w3.org/1999/xlink">
    <circle cx="245.488" cy="269.453" r="239" fill="#F3EDFC"/>
    <mask id="mask0_243_2378" style="mask-type:alpha" maskUnits="userSpaceOnUse" x="1" y="20" width="494" height="485">
        <g style="mix-blend-mode:plus-darker">
            <ellipse cx="247.988" cy="262.453" rx="246.5" ry="242" fill="url(#pattern0)"/>
        </g>
    </mask>
    <g mask="url(#mask0_243_2378)">
        <rect x="-153.512" y="43.453" width="708" height="471" fill="url(#pattern1)"/>
    </g>
    <path d="M172.28 43.0123C180.718 43.0123 187.559 36.1714 187.559 27.7327C187.559 19.2939 180.718 12.453 172.28 12.453C163.841 12.453 157 19.2939 157 27.7327C157 36.1714 163.841 43.0123 172.28 43.0123Z" stroke="white" stroke-width="1.70257" stroke-miterlimit="10" stroke-linecap="round" stroke-linejoin="round"/>
    <path d="M172.089 87.4252L166.045 85.4103L160 83.2275L164.869 79.0298L169.739 75L170.914 81.2126L172.089 87.4252Z" stroke="white" stroke-width="1.70257" stroke-miterlimit="10" stroke-linecap="round" stroke-linejoin="round"/>
    <path d="M235.089 112.593L229.045 110.41L223 108.228L227.869 104.198L232.739 100L233.914 106.213L235.089 112.593Z" stroke="white" stroke-width="1.70257" stroke-miterlimit="10" stroke-linecap="round" stroke-linejoin="round"/>
    <path d="M320.265 100.047L257.39 73.1218C256.016 72.5335 255.412 71.0243 256 69.6505L282.111 8.67707C282.699 7.30331 284.208 6.6991 285.582 7.28738L348.457 34.2125C349.831 34.8008 350.435 36.31 349.847 37.6838L323.737 98.6573C323.148 100.031 321.639 100.635 320.265 100.047Z" fill="black"/>
    <path d="M315.871 95.4142L258.068 70.6612C255.321 69.4846 253.946 66.27 255.168 63.4168L279.016 7.72698C280.192 4.97948 283.407 3.60496 286.26 4.82677L344.064 29.5798C346.811 30.7563 348.186 33.971 346.964 36.8242L323.071 92.6197C321.788 95.3219 318.619 96.5908 315.871 95.4142Z" fill="#FAE999"/>
    <path d="M321.856 69.4653L272.93 48.5134C271.45 47.8799 270.786 46.2197 271.419 44.7403L284.452 14.3064C285.085 12.827 286.745 12.1623 288.225 12.7959L337.152 33.7477C338.631 34.3812 339.296 36.0414 338.662 37.5208L325.675 67.8491C324.996 69.4342 323.336 70.0988 321.856 69.4653Z" fill="#F0E6FF"/>
    <path d="M317.8 85.3608L264.118 62.3726C264.013 62.3273 263.952 62.1764 263.998 62.0707L268.161 52.3488C268.206 52.2431 268.357 52.1827 268.463 52.228L322.145 75.2161C322.25 75.2614 322.311 75.4123 322.265 75.518L318.102 85.2399C318.163 85.3909 318.012 85.4513 317.8 85.3608Z" fill="#FE6A00"/>
    <path d="M269.716 52.5145L303.32 66.9048" stroke="black" stroke-width="1.07862" stroke-miterlimit="10"/>
    <path d="M282.989 70.5785L316.593 84.9687" stroke="black" stroke-width="1.07862" stroke-miterlimit="10"/>
    <path d="M337.106 33.8535C337.106 33.8535 339.884 34.6678 338.617 37.6267C337.35 40.5855 325.629 67.9549 325.629 67.9549C325.629 67.9549 325.027 70.823 321.856 69.4654C318.686 68.1079 272.93 48.5136 272.93 48.5136" stroke="black" stroke-width="1.07862" stroke-miterlimit="10"/>
    <path d="M307.748 32.9111C307.748 32.9111 300.985 30.8905 297.953 37.9706C293.835 47.5868 308.313 55.5373 312.747 45.1814" stroke="black" stroke-width="2.15713" stroke-miterlimit="10"/>
    <path d="M309.094 43.4918L316.174 46.5237C316.491 46.6595 316.884 46.3273 316.763 46.0254L315.04 39.5354C314.919 39.2335 314.708 39.143 314.406 39.2638L309.049 42.722C308.852 42.8881 308.777 43.356 309.094 43.4918Z" fill="black"/>
    <path d="M413 477.847L412.357 474.154L409.506 458.202L446.517 384.949L469.109 395.397L434.805 471.392L419.185 477.63L415.375 479.136C414.269 479.514 413.205 478.93 413 477.847Z" fill="#FAE999"/>
    <path d="M434.804 471.392L419.185 477.63L415.375 479.136C414.355 479.526 413.291 478.942 413.086 477.859L412.443 474.166L409.592 458.214L411.041 459.202L419.581 459.128L422.048 466.234L429.775 464.378L434.804 471.392Z" fill="white"/>
    <path d="M419.099 477.618L415.289 479.125C414.269 479.514 413.205 478.93 413 477.847L412.357 474.154C412.357 474.154 414.829 473.434 416.623 474.469C418.999 475.758 419.099 477.618 419.099 477.618Z" fill="black"/>
    <path d="M469.109 395.397L446.516 384.949C446.257 384.914 449.333 379.087 449.333 379.087L471.69 389.327L469.109 395.397Z" fill="black"/>
    <path d="M471.776 389.339L449.42 379.099L452.346 373.076C452.699 372.42 453.276 372.058 453.99 371.979C455.776 371.781 459.461 371.841 464.899 373.897C470.411 376.051 473.192 378.89 474.398 380.373C474.846 380.961 474.925 381.675 474.647 382.429L471.776 389.339Z" fill="#FE6A00"/>
    <path d="M454.235 373.419C454.083 374.542 461.016 377.24 465.578 379.266L454.235 373.419Z" fill="white"/>
    <path d="M454.235 373.419C454.083 374.542 461.016 377.24 465.578 379.266" stroke="black" stroke-width="1.01045" stroke-miterlimit="10"/>
    <path d="M468.162 380.319C468.162 380.319 472.253 381.929 472.99 381.677L468.162 380.319Z" fill="white"/>
    <path d="M468.162 380.319C468.162 380.319 472.253 381.929 472.99 381.677" stroke="black" stroke-width="1.01045" stroke-miterlimit="10"/>
    <path d="M412.089 459.256L419.409 459.104L421.962 466.222L429.688 464.367L432.971 470" stroke="black" stroke-width="1.01045" stroke-miterlimit="10"/>
    <path d="M420.623 456.631L440.977 414.802" stroke="black" stroke-width="1.01045" stroke-miterlimit="10" stroke-linecap="round" stroke-linejoin="round"/>
    <path d="M443.947 409.752L451.72 393.921" stroke="black" stroke-width="1.01045" stroke-miterlimit="10" stroke-linecap="round" stroke-linejoin="round"/>
    <path d="M432.697 457.739L461.466 398.583" stroke="black" stroke-width="1.01045" stroke-miterlimit="10" stroke-linecap="round" stroke-linejoin="round"/>
    <path d="M474.561 382.417L469.109 395.397L434.804 471.392L415.289 479.125" stroke="black" stroke-width="1.01045" stroke-miterlimit="10" stroke-linecap="round" stroke-linejoin="round"/>
    <path d="M422.597 150.788L377.772 167.956C377.492 168.065 377.234 167.951 377.125 167.671C377.017 167.391 377.131 167.132 377.411 167.024L421.583 150.109C419.97 148.161 415.233 141.202 413.092 127.66C411.389 116.63 405.894 107.714 404.725 105.807L359.828 122.789C359.548 122.897 359.289 122.783 359.181 122.503C359.072 122.224 359.186 121.965 359.466 121.856L404.737 104.73C404.923 104.658 405.275 104.736 405.347 104.922C405.384 105.015 412.167 115.041 414.097 127.485C416.531 143.166 422.717 149.991 422.81 149.955C422.976 150.105 422.919 150.234 422.898 150.457C422.934 150.55 422.784 150.716 422.597 150.788Z" fill="black"/>
    <path d="M414.988 143.335L375.291 158.515C375.198 158.551 375.068 158.494 375.032 158.401C374.996 158.307 375.053 158.178 375.146 158.142L414.843 142.962C414.937 142.926 415.066 142.983 415.102 143.077C415.138 143.17 415.081 143.299 414.988 143.335Z" fill="black"/>
    <path d="M407.41 113.561L366.48 129.433C366.387 129.469 366.257 129.412 366.221 129.319C366.185 129.226 366.242 129.096 366.335 129.06L407.266 113.188C407.359 113.152 407.488 113.209 407.524 113.302C407.503 113.525 407.503 113.525 407.41 113.561Z" fill="black"/>
    <path d="M418.065 147.398L416.573 147.976C416.293 148.085 416.035 147.97 415.926 147.691C415.818 147.411 415.932 147.152 416.212 147.044L417.703 146.465C417.983 146.357 418.242 146.471 418.35 146.751C418.459 147.03 418.345 147.289 418.065 147.398ZM412.657 149.495L408.741 151.013C408.462 151.122 408.203 151.007 408.094 150.728C407.986 150.448 408.1 150.189 408.38 150.081L412.296 148.562C412.575 148.454 412.834 148.568 412.943 148.848C413.051 149.127 412.937 149.386 412.657 149.495ZM404.826 152.532L400.91 154.05C400.63 154.159 400.371 154.045 400.263 153.765C400.154 153.485 400.268 153.226 400.548 153.118L404.464 151.599C404.744 151.491 405.002 151.605 405.111 151.885C405.219 152.164 405.105 152.423 404.826 152.532ZM396.994 155.569L393.078 157.087C392.798 157.196 392.539 157.082 392.431 156.802C392.323 156.522 392.437 156.263 392.716 156.155L396.632 154.636C396.912 154.528 397.171 154.642 397.279 154.922C397.481 155.165 397.274 155.46 396.994 155.569ZM389.255 158.57L385.339 160.088C385.06 160.197 384.801 160.082 384.692 159.803C384.584 159.523 384.698 159.264 384.978 159.156L388.894 157.637C389.173 157.529 389.432 157.643 389.541 157.923C389.649 158.202 389.442 158.497 389.255 158.57ZM381.424 161.607L377.508 163.125C377.228 163.234 376.969 163.12 376.861 162.84C376.752 162.56 376.866 162.301 377.146 162.193L381.062 160.674C381.342 160.566 381.6 160.68 381.709 160.96C381.817 161.239 381.703 161.498 381.424 161.607Z" fill="black"/>
    <path d="M405.254 110.214L404.042 110.684C403.762 110.792 403.504 110.678 403.395 110.398C403.287 110.119 403.401 109.86 403.681 109.752L404.893 109.282C405.172 109.173 405.431 109.287 405.54 109.567C405.612 109.753 405.534 110.105 405.254 110.214ZM400.126 112.202L396.21 113.721C395.931 113.829 395.672 113.715 395.563 113.436C395.455 113.156 395.569 112.897 395.849 112.789L399.765 111.27C400.044 111.162 400.303 111.276 400.412 111.555C400.577 111.706 400.406 112.094 400.126 112.202ZM392.388 115.203L388.472 116.722C388.192 116.83 387.933 116.716 387.825 116.436C387.716 116.157 387.831 115.898 388.11 115.789L392.026 114.271C392.306 114.162 392.565 114.277 392.673 114.556C392.745 114.743 392.574 115.131 392.388 115.203ZM384.556 118.24L380.64 119.759C380.36 119.867 380.102 119.753 379.993 119.473C379.885 119.194 379.999 118.935 380.279 118.827L384.194 117.308C384.474 117.2 384.733 117.314 384.841 117.593C384.914 117.78 384.836 118.132 384.556 118.24ZM376.724 121.277L372.808 122.796C372.529 122.904 372.27 122.79 372.161 122.511C372.053 122.231 372.167 121.972 372.447 121.864L376.363 120.345C376.642 120.237 376.901 120.351 377.01 120.63C377.082 120.817 377.004 121.169 376.724 121.277ZM368.893 124.314L364.977 125.833C364.697 125.941 364.438 125.827 364.33 125.548C364.221 125.268 364.335 125.009 364.615 124.901L368.531 123.382C368.811 123.274 369.069 123.388 369.178 123.668C369.25 123.854 369.172 124.206 368.893 124.314Z" fill="black"/>
    <path d="M530.423 109.94L468.277 133.61C468.09 133.683 467.738 133.605 467.666 133.418C467.63 133.325 460.846 123.3 458.916 110.855C456.482 95.1747 450.296 88.3496 450.203 88.3858C450.037 88.2355 450.095 88.1061 450.115 87.8835C450.173 87.7541 450.323 87.5885 450.416 87.5524L512.117 63.8401C512.396 63.7317 512.655 63.8458 512.764 64.1255C512.872 64.4052 512.758 64.664 512.478 64.7725L451.523 88.1955C453.137 90.1439 457.873 97.1022 460.014 110.644C461.718 121.675 467.213 130.591 468.381 132.497L530.154 108.972C530.434 108.863 530.693 108.977 530.801 109.257C530.817 109.573 530.609 109.868 530.423 109.94Z" fill="black"/>
    <path d="M513.771 72.5302L457.571 94.1092C457.478 94.1454 457.348 94.0883 457.312 93.9951C457.276 93.9018 457.333 93.7724 457.426 93.7363L513.626 72.1572C513.719 72.1211 513.849 72.1782 513.885 72.2714C513.921 72.3646 513.864 72.494 513.771 72.5302Z" fill="black"/>
    <path d="M523.481 102.55L466.981 124.46C466.888 124.496 466.758 124.439 466.722 124.346C466.686 124.253 466.743 124.123 466.836 124.087L523.337 102.177C523.43 102.141 523.559 102.198 523.595 102.291C523.632 102.384 523.574 102.514 523.481 102.55Z" fill="black"/>
    <path d="M512.614 69.5467L508.698 71.0652C508.418 71.1736 508.159 71.0595 508.051 70.7798C507.942 70.5001 508.056 70.2413 508.336 70.1328L512.252 68.6143C512.532 68.5058 512.791 68.62 512.899 68.8997C513.101 69.1432 512.893 69.4382 512.614 69.5467ZM504.875 72.5476L500.959 74.0661C500.68 74.1745 500.421 74.0604 500.312 73.7807C500.204 73.501 500.318 73.2422 500.598 73.1337L504.514 71.6152C504.793 71.5067 505.052 71.6209 505.16 71.9006C505.269 72.1803 505.062 72.4752 504.875 72.5476ZM497.043 75.5846L493.127 77.1031C492.848 77.2116 492.589 77.0974 492.481 76.8177C492.372 76.538 492.486 76.2792 492.766 76.1708L496.682 74.6523C496.961 74.5438 497.22 74.6579 497.329 74.9377C497.437 75.2174 497.323 75.4761 497.043 75.5846ZM489.212 78.6217L485.296 80.1402C485.016 80.2487 484.757 80.1345 484.649 79.8548C484.54 79.5751 484.654 79.3163 484.934 79.2078L488.85 77.6893C489.13 77.5808 489.389 77.695 489.497 77.9747C489.605 78.2544 489.491 78.5132 489.212 78.6217ZM481.38 81.6587L477.464 83.1772C477.184 83.2857 476.925 83.1715 476.817 82.8918C476.709 82.6121 476.823 82.3534 477.102 82.2449L481.018 80.7264C481.298 80.6179 481.557 80.732 481.665 81.0118C481.774 81.2915 481.66 81.5502 481.38 81.6587ZM473.548 84.6958L469.632 86.2143C469.353 86.3228 469.094 86.2086 468.985 85.9289C468.877 85.6492 468.991 85.3904 469.271 85.2819L473.187 83.7634C473.466 83.6549 473.725 83.7691 473.834 84.0488C474.035 84.2924 473.828 84.5873 473.548 84.6958ZM465.81 87.6967L461.894 89.2152C461.614 89.3236 461.355 89.2095 461.247 88.9298C461.138 88.6501 461.252 88.3913 461.532 88.2828L465.448 86.7643C465.728 86.6558 465.987 86.77 466.095 87.0497C466.203 87.3294 465.996 87.6243 465.81 87.6967ZM457.978 90.7337L455.274 91.7822C454.994 91.8907 454.736 91.7765 454.627 91.4968C454.519 91.2171 454.633 90.9583 454.912 90.8499L457.616 89.8014C457.896 89.6929 458.155 89.8071 458.263 90.0868C458.372 90.3665 458.258 90.6252 457.978 90.7337Z" fill="black"/>
    <path d="M525.181 106.932L521.265 108.451C520.985 108.559 520.726 108.445 520.618 108.165C520.509 107.885 520.624 107.627 520.903 107.518L524.819 106C525.099 105.891 525.358 106.005 525.466 106.285C525.538 106.472 525.46 106.824 525.181 106.932ZM517.349 109.969L513.433 111.488C513.153 111.596 512.895 111.482 512.786 111.202C512.678 110.923 512.792 110.664 513.071 110.555L516.987 109.037C517.267 108.928 517.526 109.042 517.634 109.322C517.8 109.472 517.629 109.861 517.349 109.969ZM509.517 113.006L505.601 114.525C505.322 114.633 505.063 114.519 504.954 114.239C504.846 113.96 504.96 113.701 505.24 113.592L509.156 112.074C509.435 111.965 509.694 112.079 509.803 112.359C509.968 112.509 509.797 112.898 509.517 113.006ZM501.779 116.007L497.863 117.526C497.583 117.634 497.324 117.52 497.216 117.24C497.107 116.96 497.221 116.702 497.501 116.593L501.417 115.075C501.697 114.966 501.956 115.08 502.064 115.36C502.136 115.547 502.058 115.899 501.779 116.007ZM493.947 119.044L490.031 120.563C489.751 120.671 489.493 120.557 489.384 120.277C489.276 119.998 489.39 119.739 489.669 119.63L493.585 118.112C493.865 118.003 494.124 118.117 494.232 118.397C494.305 118.584 494.227 118.936 493.947 119.044ZM486.115 122.081L482.199 123.6C481.92 123.708 481.661 123.594 481.552 123.314C481.444 123.035 481.558 122.776 481.838 122.667L485.754 121.149C486.033 121.04 486.292 121.154 486.401 121.434C486.473 121.621 486.395 121.973 486.115 122.081ZM478.283 125.118L474.367 126.637C474.088 126.745 473.829 126.631 473.721 126.351C473.612 126.072 473.726 125.813 474.006 125.704L477.922 124.186C478.202 124.077 478.46 124.192 478.569 124.471C478.641 124.658 478.563 125.01 478.283 125.118ZM470.452 128.155L467.375 129.348C467.095 129.457 466.836 129.343 466.728 129.063C466.619 128.783 466.734 128.524 467.013 128.416L470.09 127.223C470.37 127.114 470.629 127.229 470.737 127.508C470.903 127.659 470.731 128.047 470.452 128.155Z" fill="black"/>
    <path d="M422.649 117.733C422.806 122.285 423.936 126.029 426.324 130.252C428.95 134.81 441.958 149.823 441.958 149.823L452.705 152.091C452.705 152.091 455.228 150.576 454.752 149.903C452.539 146.685 447.843 141.213 447.843 141.213C447.843 141.213 445.145 141.723 443.453 140.126C437.954 135.073 427.216 123.148 422.649 117.733Z" fill="white"/>
    <path d="M452.979 152.521C452.886 152.557 452.792 152.593 452.663 152.536L441.916 150.268C441.787 150.211 441.657 150.154 441.621 150.061C441.052 149.423 428.577 134.955 425.951 130.396C423.563 126.174 422.36 122.243 422.168 117.598C422.189 117.376 422.303 117.117 422.49 117.044C422.676 116.972 422.899 116.993 423.1 117.237C427.3 122.258 438.203 134.333 443.868 139.537C445.394 140.983 447.776 140.488 447.87 140.452C448.056 140.379 448.222 140.53 448.351 140.587C448.387 140.68 453.083 146.152 455.26 149.277C455.426 149.427 455.441 149.743 455.42 149.965C455.129 151.151 453.502 152.211 452.979 152.521ZM442.316 149.363L452.711 151.552C453.477 151.04 454.301 150.399 454.415 150.14C452.476 147.353 448.68 142.819 447.744 141.787C446.926 141.89 444.808 141.961 443.189 140.551C437.891 135.741 428.162 125.034 423.394 119.375C423.799 123.187 424.842 126.429 426.92 130.128C429.272 134.257 440.976 147.844 442.316 149.363Z" fill="black"/>
    <path d="M464.491 156.208C461.482 156.195 455.85 149.691 455.85 149.691L451.824 152.861C451.824 152.861 460.217 163.443 464.194 168.443C468.704 173.987 473.13 175.167 477.54 170.775C480.261 168.111 479.287 163.663 476.427 160.16C471.571 153.999 465.754 156.147 464.491 156.208ZM474.783 168.091C473.331 170.155 469.914 170.193 467.033 166.913C465.326 165.001 464.034 162.499 465.294 161.045C467.212 158.8 469.453 159.325 471.316 160.533C473.013 161.591 476.914 165.012 474.783 168.091Z" fill="#FFBAA8"/>
    <path d="M474.597 173.418C473.665 173.78 472.753 173.919 471.769 173.871C469.134 173.714 466.516 171.94 463.857 168.681C459.917 163.774 451.559 153.286 451.487 153.099C451.285 152.856 451.363 152.504 451.514 152.338L455.54 149.168C455.783 148.966 456.135 149.044 456.301 149.195C457.842 150.957 462.177 155.496 464.554 155.54C464.683 155.597 464.963 155.489 465.372 155.437C467.567 155.015 472.627 154.233 477.007 159.72C480.343 163.897 480.779 168.34 478.058 171.004C476.819 172.235 475.716 172.985 474.597 173.418ZM452.585 152.888C454.199 154.836 461.144 163.62 464.681 168.04C467.138 171.055 469.497 172.715 471.781 172.794C473.655 172.926 475.484 172.109 477.266 170.345C480.081 167.645 478.381 163.263 476.09 160.398C472.113 155.397 467.592 156.185 465.454 156.478C465.044 156.53 464.765 156.638 464.542 156.617C461.72 156.532 457.184 151.748 455.88 150.323L452.585 152.888ZM473.373 169.71C473 169.855 472.498 169.942 472.089 169.994C470.194 170.085 468.217 169.135 466.51 167.223C464.674 165.254 463.273 162.472 464.74 160.723C466 159.27 468.093 158.029 471.451 160.052C472.724 160.845 475.228 162.877 475.666 165.389C475.877 166.487 475.643 167.543 475.021 168.427C474.699 168.981 474.119 169.421 473.373 169.71ZM467.122 160.229C466.563 160.446 466.076 160.849 465.532 161.382C464.573 162.504 465.663 164.763 467.204 166.525C468.673 168.1 470.428 169.029 471.878 168.896C472.825 168.85 473.628 168.431 474.1 167.712C474.572 166.993 474.728 166.289 474.532 165.507C474.125 163.627 472.102 161.73 470.829 160.936C469.52 160.05 468.241 159.795 467.122 160.229Z" fill="black"/>
    <path d="M441.561 110.078C444.758 113.343 446.727 116.762 448.09 121.382C449.633 126.468 451.468 146.135 451.468 146.135L445.649 155.47C445.649 155.47 442.744 156.275 442.605 155.364C441.884 151.568 441.124 144.354 441.124 144.354C441.124 144.354 443.295 142.762 443.339 140.385C443.491 133.033 442.341 117.069 441.561 110.078Z" fill="white"/>
    <path d="M445.737 155.973C445.141 156.096 443.204 156.633 442.449 156.068C442.19 155.954 442.082 155.674 442.009 155.488C441.288 151.692 440.529 144.478 440.529 144.478C440.456 144.292 440.607 144.126 440.757 143.961C440.757 143.961 442.778 142.533 442.837 140.473C443.01 132.898 441.752 116.654 441.023 110.072C441.044 109.849 441.064 109.627 441.344 109.518C441.531 109.446 441.753 109.467 441.919 109.617C445.152 112.976 447.157 116.488 448.556 121.201C450.063 126.194 451.867 145.229 451.97 146.048C452.006 146.141 451.949 146.27 451.892 146.4L446.074 155.735C445.923 155.9 445.83 155.937 445.737 155.973ZM443.014 155.312C443.273 155.427 444.314 155.345 445.189 155.113L450.836 146.166C450.615 144.213 448.929 126.312 447.567 121.692C446.421 117.632 444.725 114.642 442.305 111.72C443.007 119.063 444.117 133.541 443.986 140.671C443.963 142.825 442.388 144.294 441.75 144.862C441.775 146.033 442.438 151.889 443.014 155.312Z" fill="black"/>
    <path d="M440.404 166.836C442.451 164.648 441.595 156.077 441.595 156.077L446.69 155.388C446.69 155.388 448.536 168.723 449.38 175.046C450.289 182.094 447.981 186.099 441.851 186.332C438.024 186.421 435.501 182.68 434.936 178.18C433.959 170.407 439.595 167.793 440.404 166.836ZM441.947 182.433C444.433 182.756 446.817 180.33 446.453 176.074C446.331 173.547 445.319 170.936 443.445 170.805C440.493 170.662 439.321 172.618 438.89 174.824C438.442 176.713 438.313 181.912 441.947 182.433Z" fill="#FFBAA8"/>
    <path d="M445.454 186.221C444.429 186.619 443.238 186.866 441.938 186.834C438.112 186.923 435.231 183.643 434.527 178.232C433.56 171.313 437.715 168.2 439.456 166.881C439.7 166.68 439.943 166.478 440.037 166.442C441.633 164.75 441.328 158.433 441.186 156.129C441.17 155.813 441.414 155.611 441.6 155.539L446.696 154.85C447.012 154.835 447.271 154.949 447.286 155.265C447.322 155.358 449.168 168.693 449.975 174.922C450.525 179.106 449.916 182.238 448.206 184.189C447.527 185.203 446.573 185.787 445.454 186.221ZM442.221 156.585C442.348 158.574 442.761 165.171 440.771 167.23C440.621 167.395 440.377 167.597 440.041 167.835C438.3 169.153 434.631 171.863 435.474 178.186C435.937 181.868 437.973 186.012 441.892 185.886C444.419 185.764 446.284 185.041 447.45 183.624C448.917 181.875 449.412 179.002 448.877 175.134C448.137 169.629 446.62 158.526 446.276 155.978L442.221 156.585ZM443.894 182.75C443.241 183.004 442.61 183.034 441.942 182.971C440.829 182.867 439.944 182.244 439.266 181.327C437.839 179.307 438.096 176.097 438.372 174.595C439.23 170.723 441.669 170.099 443.507 170.137C445.827 170.31 446.855 173.236 447.049 175.95C447.264 178.441 446.609 180.625 445.241 181.799C444.79 182.296 444.36 182.57 443.894 182.75ZM441.673 171.492C440.461 171.962 439.725 173.105 439.335 174.865C439.059 176.367 438.973 179.189 440.033 180.815C440.509 181.489 441.099 181.904 441.989 181.987C442.88 182.071 443.755 181.839 444.356 181.177C445.445 180.111 446.021 178.279 445.821 176.104C445.679 173.8 444.832 171.339 443.31 171.286C442.771 171.281 442.233 171.275 441.673 171.492Z" fill="black"/>
    <path d="M445.343 145.829C445.219 145.233 445.67 144.737 446.266 144.613C446.861 144.489 447.358 144.94 447.482 145.536C447.605 146.131 447.154 146.628 446.559 146.752C446.057 146.839 445.467 146.425 445.343 145.829Z" fill="black"/>
    <path d="M1 424.878L6.87679 414.468L14.0969 424.375L18.7983 412.453" stroke="white" stroke-width="1.70257" stroke-miterlimit="10" stroke-linecap="round" stroke-linejoin="round"/>
    <path d="M66.5825 71.8815C66.2904 71.8815 66.1443 71.7355 65.9983 71.5894C59.2793 62.2413 50.9536 54.2077 41.3134 47.7809C41.0212 47.4888 40.8752 47.0506 41.1673 46.7584C41.4594 46.4663 41.8976 46.3202 42.1898 46.6124C51.9761 53.1853 60.4478 61.2188 67.3128 70.713C67.605 71.0052 67.459 71.5894 67.1668 71.7355C66.8747 71.7355 66.7286 71.8815 66.5825 71.8815Z" fill="black"/>
    <path d="M55.1892 80.9374C55.0432 80.9374 54.8971 80.9374 54.8971 80.7914C48.9084 77.8701 42.7738 75.533 36.493 73.6342C36.0548 73.4881 35.9087 73.0499 36.0548 72.6117C36.2008 72.1736 36.639 72.0275 37.0772 72.1735C43.5041 74.0724 49.7848 76.5555 55.7735 79.4768C56.2117 79.6228 56.3578 80.061 56.0656 80.4992C55.6274 80.6453 55.3353 80.9374 55.1892 80.9374Z" fill="black"/>
    <path d="M197.623 174.205C197.185 174.205 196.893 173.913 196.893 173.475V134.183C196.893 133.745 197.185 133.453 197.623 133.453C198.061 133.453 198.353 133.745 198.353 134.183V173.475C198.353 173.913 198.061 174.205 197.623 174.205Z" fill="black"/>
    <path d="M188.275 167.048C187.837 167.048 187.544 166.756 187.544 166.317V141.34C187.544 140.902 187.837 140.61 188.275 140.61C188.713 140.61 189.005 140.902 189.005 141.34V166.317C189.005 166.756 188.713 167.048 188.275 167.048Z" fill="black"/>
    <path d="M179.219 160.037C178.78 160.037 178.488 159.744 178.488 159.306V148.351C178.488 147.913 178.78 147.621 179.219 147.621C179.657 147.621 179.949 147.913 179.949 148.351V159.306C179.949 159.744 179.657 160.037 179.219 160.037Z" fill="black"/>
    <path d="M206.679 167.048C206.241 167.048 205.948 166.756 205.948 166.317V141.34C205.948 140.902 206.241 140.61 206.679 140.61C207.117 140.61 207.409 140.902 207.409 141.34V166.317C207.409 166.756 207.117 167.048 206.679 167.048Z" fill="black"/>
    <path d="M215.735 160.037C215.297 160.037 215.005 159.744 215.005 159.306V148.351C215.005 147.913 215.297 147.621 215.735 147.621C216.173 147.621 216.465 147.913 216.465 148.351V159.306C216.611 159.744 216.173 160.037 215.735 160.037Z" fill="black"/>
    <path d="M298.992 174.205C298.554 174.205 298.261 173.913 298.261 173.475V134.183C298.261 133.745 298.554 133.453 298.992 133.453C299.43 133.453 299.722 133.745 299.722 134.183V173.475C299.722 173.913 299.43 174.205 298.992 174.205Z" fill="black"/>
    <path d="M289.644 167.048C289.205 167.048 288.913 166.756 288.913 166.317V141.34C288.913 140.902 289.205 140.61 289.644 140.61C290.082 140.61 290.374 140.902 290.374 141.34V166.317C290.374 166.756 290.082 167.048 289.644 167.048Z" fill="black"/>
    <path d="M280.442 160.037C280.004 160.037 279.711 159.744 279.711 159.306V148.351C279.711 147.913 280.004 147.621 280.442 147.621C280.88 147.621 281.172 147.913 281.172 148.351V159.306C281.318 159.744 280.88 160.037 280.442 160.037Z" fill="black"/>
    <path d="M308.048 167.048C307.61 167.048 307.317 166.756 307.317 166.317V141.34C307.317 140.902 307.61 140.61 308.048 140.61C308.486 140.61 308.778 140.902 308.778 141.34V166.317C308.778 166.756 308.486 167.048 308.048 167.048Z" fill="black"/>
    <path d="M317.104 160.037C316.665 160.037 316.373 159.744 316.373 159.306V148.351C316.373 147.913 316.665 147.621 317.104 147.621C317.542 147.621 317.834 147.913 317.834 148.351V159.306C317.98 159.744 317.542 160.037 317.104 160.037Z" fill="black"/>
    <path d="M252.251 174.205C251.813 174.205 251.521 173.913 251.521 173.475V134.183C251.521 133.745 251.813 133.453 252.251 133.453C252.689 133.453 252.981 133.745 252.981 134.183V173.475C252.981 173.913 252.689 174.205 252.251 174.205Z" fill="black"/>
    <path d="M233.847 167.048C233.409 167.048 233.116 166.756 233.116 166.317V141.34C233.116 140.902 233.409 140.61 233.847 140.61C234.285 140.61 234.577 140.902 234.577 141.34V166.317C234.577 166.756 234.285 167.048 233.847 167.048Z" fill="black"/>
    <path d="M224.791 156.823C224.353 156.823 224.061 156.531 224.061 156.093V151.565C224.061 151.127 224.353 150.834 224.791 150.834C225.229 150.834 225.521 151.127 225.521 151.565V156.093C225.521 156.531 225.229 156.823 224.791 156.823Z" fill="black"/>
    <path d="M325.722 156.823C325.284 156.823 324.991 156.531 324.991 156.093V151.565C324.991 151.127 325.284 150.834 325.722 150.834C326.16 150.834 326.452 151.127 326.452 151.565V156.093C326.452 156.531 326.16 156.823 325.722 156.823Z" fill="black"/>
    <path d="M242.903 160.037C242.465 160.037 242.173 159.744 242.173 159.306V148.351C242.173 147.913 242.465 147.621 242.903 147.621C243.341 147.621 243.633 147.913 243.633 148.351V159.306C243.779 159.744 243.341 160.037 242.903 160.037Z" fill="black"/>
    <path d="M261.307 167.048C260.869 167.048 260.577 166.756 260.577 166.317V141.34C260.577 140.902 260.869 140.61 261.307 140.61C261.745 140.61 262.037 140.902 262.037 141.34V166.317C262.037 166.756 261.745 167.048 261.307 167.048Z" fill="black"/>
    <path d="M270.948 163.542C270.509 163.542 270.217 163.25 270.217 162.812V144.846C270.217 144.408 270.509 144.116 270.948 144.116C271.386 144.116 271.678 144.408 271.678 144.846V162.812C271.678 163.25 271.386 163.542 270.948 163.542Z" fill="black"/>
    <path d="M42.1001 471.353C41.8001 471.353 41.6001 471.153 41.6001 470.853V443.953C41.6001 443.653 41.8001 443.453 42.1001 443.453C42.4001 443.453 42.6001 443.653 42.6001 443.953V470.853C42.6001 471.153 42.4001 471.353 42.1001 471.353Z" fill="black"/>
    <path d="M35.7 466.453C35.4 466.453 35.2 466.253 35.2 465.953V448.853C35.2 448.553 35.4 448.353 35.7 448.353C36 448.353 36.2 448.553 36.2 448.853V465.953C36.2 466.253 36 466.453 35.7 466.453Z" fill="black"/>
    <path d="M29.5 461.653C29.2 461.653 29 461.453 29 461.153V453.653C29 453.353 29.2 453.153 29.5 453.153C29.8 453.153 30 453.353 30 453.653V461.153C30 461.453 29.8 461.653 29.5 461.653Z" fill="black"/>
    <path d="M48.3 466.453C48 466.453 47.8 466.253 47.8 465.953V448.853C47.8 448.553 48 448.353 48.3 448.353C48.6 448.353 48.8 448.553 48.8 448.853V465.953C48.8 466.253 48.6 466.453 48.3 466.453Z" fill="black"/>
    <path d="M54.5 461.653C54.2 461.653 54 461.453 54 461.153V453.653C54 453.353 54.2 453.153 54.5 453.153C54.8 453.153 55 453.353 55 453.653V461.153C55.1 461.453 54.8 461.653 54.5 461.653Z" fill="black"/>
    <path d="M111.5 471.353C111.2 471.353 111 471.153 111 470.853V443.953C111 443.653 111.2 443.453 111.5 443.453C111.8 443.453 112 443.653 112 443.953V470.853C112 471.153 111.8 471.353 111.5 471.353Z" fill="black"/>
    <path d="M105.1 466.453C104.8 466.453 104.6 466.253 104.6 465.953V448.853C104.6 448.553 104.8 448.353 105.1 448.353C105.4 448.353 105.6 448.553 105.6 448.853V465.953C105.6 466.253 105.4 466.453 105.1 466.453Z" fill="black"/>
    <path d="M98.8 461.653C98.5 461.653 98.3 461.453 98.3 461.153V453.653C98.3 453.353 98.5 453.153 98.8 453.153C99.1 453.153 99.3 453.353 99.3 453.653V461.153C99.4 461.453 99.1 461.653 98.8 461.653Z" fill="black"/>
    <path d="M117.7 466.453C117.4 466.453 117.2 466.253 117.2 465.953V448.853C117.2 448.553 117.4 448.353 117.7 448.353C118 448.353 118.2 448.553 118.2 448.853V465.953C118.2 466.253 118 466.453 117.7 466.453Z" fill="black"/>
    <path d="M123.9 461.653C123.6 461.653 123.4 461.453 123.4 461.153V453.653C123.4 453.353 123.6 453.153 123.9 453.153C124.2 453.153 124.4 453.353 124.4 453.653V461.153C124.5 461.453 124.2 461.653 123.9 461.653Z" fill="black"/>
    <path d="M79.5 471.353C79.2 471.353 79 471.153 79 470.853V443.953C79 443.653 79.2 443.453 79.5 443.453C79.8 443.453 80 443.653 80 443.953V470.853C80 471.153 79.8 471.353 79.5 471.353Z" fill="black"/>
    <path d="M66.8999 466.453C66.5999 466.453 66.3999 466.253 66.3999 465.953V448.853C66.3999 448.553 66.5999 448.353 66.8999 448.353C67.1999 448.353 67.3999 448.553 67.3999 448.853V465.953C67.3999 466.253 67.1999 466.453 66.8999 466.453Z" fill="black"/>
    <path d="M60.7 459.453C60.4 459.453 60.2 459.253 60.2 458.953V455.853C60.2 455.553 60.4 455.353 60.7 455.353C61 455.353 61.2 455.553 61.2 455.853V458.953C61.2 459.253 61 459.453 60.7 459.453Z" fill="black"/>
    <path d="M129.8 459.453C129.5 459.453 129.3 459.253 129.3 458.953V455.853C129.3 455.553 129.5 455.353 129.8 455.353C130.1 455.353 130.3 455.553 130.3 455.853V458.953C130.3 459.253 130.1 459.453 129.8 459.453Z" fill="black"/>
    <path d="M73.1001 461.653C72.8001 461.653 72.6001 461.453 72.6001 461.153V453.653C72.6001 453.353 72.8001 453.153 73.1001 453.153C73.4001 453.153 73.6001 453.353 73.6001 453.653V461.153C73.7001 461.453 73.4001 461.653 73.1001 461.653Z" fill="black"/>
    <path d="M85.7 466.453C85.4 466.453 85.2 466.253 85.2 465.953V448.853C85.2 448.553 85.4 448.353 85.7 448.353C86 448.353 86.2 448.553 86.2 448.853V465.953C86.2 466.253 86 466.453 85.7 466.453Z" fill="black"/>
    <path d="M92.3 464.053C92 464.053 91.8 463.853 91.8 463.553V451.253C91.8 450.953 92 450.753 92.3 450.753C92.6 450.753 92.8 450.953 92.8 451.253V463.553C92.8 463.853 92.6 464.053 92.3 464.053Z" fill="black"/>
    <defs>
        <pattern id="pattern0" patternContentUnits="objectBoundingBox" width="1" height="1">
            <use xlink:href="#image0_243_2378" transform="matrix(0.0014374 0 0 0.00146413 -0.235949 0)"/>
        </pattern>
        <pattern id="pattern1" patternContentUnits="objectBoundingBox" width="1" height="1">
            <use xlink:href="#image1_243_2378" transform="matrix(0.000976562 0 0 0.00146795 0 -0.00130623)"/>
        </pattern>
        <image id="image0_243_2378" width="1024" height="683" xlink:href="/png/people_near_computer.png"/>
        <image id="image1_243_2378" width="1024" height="683" xlink:href="/png/people_near_computer_transparent.png"/>
    </defs>
</svg>
