<svg viewBox="0 0 570 544" fill="none" xmlns="http://www.w3.org/2000/svg" xmlns:xlink="http://www.w3.org/1999/xlink">
<g style="mix-blend-mode:plus-darker">
<circle cx="293" cy="272" r="272" fill="#F3EDFC"/>
</g>
<path d="M433.738 10.9548H326.234C325.796 10.9548 325.504 10.6627 325.504 10.2245C325.504 9.78627 325.796 9.49414 326.234 9.49414H433.738C434.176 9.49414 434.468 9.78627 434.468 10.2245C434.614 10.6627 434.176 10.9548 433.738 10.9548Z" fill="black"/>
<path d="M370.638 19.7186C373.3 19.7186 375.458 15.4679 375.458 10.2244C375.458 4.98092 373.3 0.730225 370.638 0.730225C367.976 0.730225 365.818 4.98092 365.818 10.2244C365.818 15.4679 367.976 19.7186 370.638 19.7186Z" fill="black"/>
<path d="M370.93 20.449H370.784H370.638C366.694 20.449 365.088 17.5278 365.088 10.2245C365.088 1.60671 367.133 0 370.638 0C374.144 0 376.189 1.60671 376.189 10.2245C376.189 15.3368 375.604 18.112 374.29 19.4266C373.267 20.4491 372.099 20.449 370.93 20.449ZM370.638 1.46065C368.593 1.46065 366.548 1.46065 366.548 10.2245C366.548 18.9884 369.031 18.9884 370.638 18.9884H370.784C371.953 18.9884 372.683 18.9884 373.267 18.4041C374.29 17.3817 374.728 14.7525 374.728 10.2245C374.728 1.46065 372.683 1.46065 370.638 1.46065Z" fill="black"/>
<path d="M347.706 7.74146C347.56 7.74146 347.414 7.59539 347.414 7.44933V0.730357C347.414 0.584293 347.56 0.438232 347.706 0.438232C347.852 0.438232 347.998 0.584293 347.998 0.730357V7.44933C347.852 7.59539 347.852 7.74146 347.706 7.74146Z" fill="black"/>
<path d="M369.178 7.74146C369.032 7.74146 368.885 7.59539 368.885 7.44933V0.730357C368.885 0.584293 369.032 0.438232 369.178 0.438232C369.324 0.438232 369.47 0.584293 369.47 0.730357V7.44933C369.47 7.59539 369.324 7.74146 369.178 7.74146Z" fill="black"/>
<path d="M390.795 7.74146C390.649 7.74146 390.503 7.59539 390.503 7.44933V0.730357C390.503 0.584293 390.649 0.438232 390.795 0.438232C390.941 0.438232 391.087 0.584293 391.087 0.730357V7.44933C391.087 7.59539 390.941 7.74146 390.795 7.74146Z" fill="black"/>
<path d="M412.413 7.74146C412.267 7.74146 412.121 7.59539 412.121 7.44933V0.730357C412.121 0.584293 412.267 0.438232 412.413 0.438232C412.559 0.438232 412.705 0.584293 412.705 0.730357V7.44933C412.705 7.59539 412.559 7.74146 412.413 7.74146Z" fill="black"/>
<path d="M248.089 71.4252L242.044 69.4103L236 67.2275L240.869 63.0298L245.738 59L246.914 65.2126L248.089 71.4252Z" stroke="white" stroke-width="1.70257" stroke-miterlimit="10" stroke-linecap="round" stroke-linejoin="round"/>
<path d="M530.18 79.5593C538.618 79.5593 545.459 72.7184 545.459 64.2797C545.459 55.8409 538.618 49 530.18 49C521.741 49 514.9 55.8409 514.9 64.2797C514.9 72.7184 521.741 79.5593 530.18 79.5593Z" stroke="white" stroke-width="1.70257" stroke-miterlimit="10" stroke-linecap="round" stroke-linejoin="round"/>
<path d="M199.273 221.852L193.228 219.67L187.183 217.487L192.052 213.457L196.922 209.259L198.097 215.472L199.273 221.852Z" stroke="white" stroke-width="1.70257" stroke-miterlimit="10" stroke-linecap="round" stroke-linejoin="round"/>
<mask id="mask0_324_14401" style="mask-type:alpha" maskUnits="userSpaceOnUse" x="20" y="0" width="545" height="544">
<g style="mix-blend-mode:plus-darker">
<circle cx="293" cy="272" r="272" fill="#F0E6FF"/>
</g>
</mask>
<g mask="url(#mask0_324_14401)">
<rect x="175" y="47" width="303.329" height="491" fill="url(#pattern0)"/>
</g>
<path d="M563.119 331.251H508.045C505.863 331.251 504.184 329.572 504.184 327.389V293.472C504.184 291.289 505.863 289.61 508.045 289.61H563.119C565.302 289.61 566.981 291.289 566.981 293.472V327.389C566.981 329.572 565.302 331.251 563.119 331.251Z" fill="black"/>
<path d="M565.638 328.901H510.564C508.381 328.901 506.702 327.221 506.702 325.039V291.121C506.702 288.938 508.381 287.259 510.564 287.259H565.638C567.821 287.259 569.5 288.938 569.5 291.121V325.039C569.5 327.054 567.821 328.901 565.638 328.901Z" fill="#FAE999"/>
<path d="M517.156 318.648L517.161 318.642L517.166 318.637L527.068 306.385C527.876 305.448 529.191 305.45 529.998 306.391L529.999 306.392L540.574 318.646C540.855 318.986 540.894 319.452 540.726 319.849C540.56 320.241 540.218 320.509 539.78 320.509H518.288C517.598 320.509 517.152 320.204 516.961 319.862C516.778 319.534 516.778 319.089 517.156 318.648Z" fill="#F3EDFC" stroke="black"/>
<path d="M549.552 300.861L549.56 300.853L549.567 300.844C550.201 300.083 551.236 300.038 552.083 300.596L561.277 307.616C561.697 308.046 561.947 308.587 561.947 309.087V318.826C561.947 319.893 561.164 320.677 560.097 320.677H547C546.506 320.677 545.978 320.433 545.557 319.874L540.696 313.002C540.172 312.212 540.277 311.274 540.688 310.561L549.552 300.861Z" fill="#F3EDFC" stroke="black"/>
<path d="M523.329 297.837C523.329 299.787 521.749 301.367 519.799 301.367C517.85 301.367 516.269 299.787 516.269 297.837C516.269 295.888 517.85 294.307 519.799 294.307C521.749 294.307 523.329 295.888 523.329 297.837Z" fill="#F3EDFC" stroke="black"/>
<path d="M34.6956 132.684L40.5723 122.274L47.7924 132.181L52.4938 120.259" stroke="white" stroke-width="1.70257" stroke-miterlimit="10" stroke-linecap="round" stroke-linejoin="round"/>
<path d="M140.598 209.377L71.3092 172.243C67.9293 170.432 66.8435 166.369 68.5643 163.158L90.573 122.092C92.3844 118.712 96.4469 117.626 99.6578 119.347L168.946 156.481C172.326 158.293 173.412 162.355 171.691 165.566L149.682 206.632C147.962 209.843 143.809 211.098 140.598 209.377Z" fill="black"/>
<path d="M138.564 205.459L69.2758 168.325C65.8958 166.514 64.81 162.451 66.5309 159.24L88.5395 118.174C90.3509 114.794 94.4134 113.708 97.6243 115.429L166.913 152.563C170.293 154.375 171.378 158.437 169.658 161.648L147.649 202.714C146.007 206.185 141.944 207.27 138.564 205.459Z" fill="#F3EDFC"/>
<path d="M110.119 155.843L117.365 142.323L125.402 155.333L133.44 168.342L118.157 168.852L102.964 169.194L110.119 155.843Z" fill="#FE6A00"/>
<path d="M102.964 169.194L133.44 168.342L125.402 155.333" stroke="black" stroke-width="1.40997" stroke-miterlimit="10" stroke-linecap="round" stroke-linejoin="round"/>
<path d="M117.365 142.323L110.119 155.843" stroke="black" stroke-width="1.40997" stroke-miterlimit="10" stroke-linecap="round" stroke-linejoin="round"/>
<path d="M103.766 110.688C103.474 110.688 103.327 110.542 103.181 110.396C96.4624 101.047 88.1367 93.0139 78.4965 86.587C78.2043 86.2949 78.0583 85.8567 78.3504 85.5646C78.6425 85.2724 79.0807 85.1264 79.3729 85.4185C89.1592 91.9914 97.6309 100.025 104.496 109.519C104.788 109.811 104.642 110.396 104.35 110.542C104.058 110.542 103.912 110.688 103.766 110.688Z" fill="black"/>
<path d="M92.3724 119.744C92.2263 119.744 92.0802 119.744 92.0802 119.598C86.0916 116.676 79.9569 114.339 73.6761 112.44C73.2379 112.294 73.0918 111.856 73.2379 111.418C73.3839 110.98 73.8222 110.834 74.2603 110.98C80.6872 112.879 86.968 115.362 92.9566 118.283C93.3948 118.429 93.5409 118.867 93.2487 119.306C92.8106 119.452 92.5184 119.744 92.3724 119.744Z" fill="black"/>
<path d="M485.261 436.468C485.115 436.472 484.969 436.477 484.818 436.335C484.517 436.053 484.358 435.619 484.641 435.318C495.044 422.134 500.206 404.876 498.661 388.118C498.648 387.68 498.931 387.379 499.364 387.219C499.802 387.206 500.103 387.489 500.263 387.922C501.821 405.118 496.522 422.673 485.84 436.304C485.694 436.308 485.553 436.459 485.261 436.468Z" fill="black"/>
<path d="M501.105 443.135C500.959 443.14 500.662 443.003 500.512 442.861C500.211 442.578 500.197 442.14 500.48 441.839C506.58 435.95 512.225 429.491 517.271 422.611C517.554 422.31 517.988 422.15 518.289 422.433C518.59 422.716 518.749 423.15 518.466 423.451C513.42 430.33 507.634 436.94 501.534 442.829C501.397 443.126 501.251 443.131 501.105 443.135Z" fill="black"/>
<path d="M514.658 456.011C514.512 456.016 514.215 455.879 514.065 455.737C513.764 455.455 513.75 455.017 514.033 454.716C521.133 448.065 529.893 443.115 539.314 440.63C539.748 440.47 540.195 440.749 540.208 441.187C540.368 441.62 540.09 442.067 539.652 442.081C530.522 444.557 521.904 449.356 514.945 455.856C515.091 455.852 514.804 456.007 514.658 456.011Z" fill="black"/>
<path d="M198.114 71.2141H110.913C110.475 71.2141 110.183 70.9219 110.183 70.4837C110.183 70.0455 110.475 69.7534 110.913 69.7534H198.114C198.552 69.7534 198.844 70.0455 198.844 70.4837C198.844 70.9219 198.552 71.2141 198.114 71.2141Z" fill="black"/>
<path d="M171.969 70.4837C171.969 61.5738 174.159 60.9895 176.789 60.9895C179.418 60.9895 181.609 61.7198 181.609 70.4837C181.609 80.124 179.418 79.9779 176.789 79.9779C174.159 79.9779 171.969 78.8094 171.969 70.4837Z" fill="black"/>
<path d="M177.081 80.7083H176.935H176.788C172.845 80.7083 171.238 77.787 171.238 70.4838C171.238 61.866 173.137 60.2593 176.788 60.2593C180.294 60.2593 182.339 61.866 182.339 70.4838C182.339 75.5961 181.755 78.3713 180.44 79.6859C179.564 80.7083 178.395 80.7083 177.081 80.7083ZM176.788 61.7199C174.744 61.7199 172.699 61.7199 172.699 70.4838C172.699 79.2477 175.182 79.2477 176.788 79.2477H176.935C178.103 79.2477 178.833 79.2477 179.418 78.6634C180.44 77.641 180.878 75.0118 180.878 70.4838C180.878 61.7199 178.833 61.7199 176.788 61.7199Z" fill="black"/>
<path d="M133.553 67.8545C133.407 67.8545 133.261 67.7084 133.261 67.5624V60.8434C133.261 60.6973 133.407 60.5513 133.553 60.5513C133.699 60.5513 133.845 60.6973 133.845 60.8434V67.5624C133.845 67.8545 133.699 67.8545 133.553 67.8545Z" fill="black"/>
<path d="M155.171 67.8545C155.025 67.8545 154.879 67.7084 154.879 67.5624V60.8434C154.879 60.6973 155.025 60.5513 155.171 60.5513C155.317 60.5513 155.463 60.6973 155.463 60.8434V67.5624C155.463 67.8545 155.317 67.8545 155.171 67.8545Z" fill="black"/>
<path d="M480.611 181.293L480.757 209.338L511.285 194.877L480.611 181.293Z" fill="#FFBAA8"/>
<path d="M480.757 210.068C480.611 210.068 480.465 210.068 480.319 209.922C480.027 209.776 480.027 209.484 480.027 209.338L479.881 181.293C479.881 181.001 480.027 180.855 480.173 180.709C480.319 180.563 480.611 180.563 480.904 180.709L511.577 194.439C511.869 194.585 512.015 194.877 512.015 195.17C512.015 195.462 511.869 195.754 511.577 195.9L481.05 210.214C480.904 210.068 480.904 210.068 480.757 210.068ZM481.342 182.462L481.488 208.169L509.386 195.023L481.342 182.462Z" fill="black"/>
<path d="M433.286 172.529C432.848 172.529 432.556 172.237 432.556 171.799L432.702 140.249C432.702 139.811 432.994 139.519 433.433 139.519C433.871 139.519 434.163 139.811 434.163 140.249L434.017 171.799C434.163 172.091 433.725 172.529 433.286 172.529Z" fill="black"/>
<path d="M454.904 150.181L424.084 150.035C423.646 150.035 423.354 149.743 423.354 149.305C423.354 148.867 423.646 148.575 424.084 148.575L454.904 148.721C455.342 148.721 455.634 149.013 455.634 149.451C455.634 149.743 455.342 150.181 454.904 150.181Z" fill="black"/>
<path d="M454.904 241.618H424.084C423.646 241.618 423.354 241.326 423.354 240.888C423.354 240.45 423.646 240.157 424.084 240.157L454.904 240.304C455.342 240.304 455.634 240.596 455.634 241.034C455.634 241.326 455.342 241.618 454.904 241.618Z" fill="black"/>
<path d="M432.994 251.112C432.556 251.112 432.264 250.82 432.264 250.382L432.41 218.832C432.41 218.393 432.702 218.101 433.141 218.101C433.579 218.101 433.871 218.393 433.871 218.832L433.725 250.382C433.725 250.82 433.433 251.112 432.994 251.112Z" fill="black"/>
<path d="M550.722 251.112C550.284 251.112 549.992 250.82 549.992 250.382L550.138 218.832C550.138 218.393 550.43 218.101 550.868 218.101C551.307 218.101 551.599 218.393 551.599 218.832L551.453 250.382C551.453 250.82 551.014 251.112 550.722 251.112Z" fill="black"/>
<path d="M559.924 242.056L529.105 241.91C528.666 241.91 528.374 241.618 528.374 241.18C528.374 240.742 528.666 240.449 529.105 240.449L559.924 240.596C560.362 240.596 560.655 240.888 560.655 241.326C560.801 241.618 560.362 242.056 559.924 242.056Z" fill="black"/>
<path d="M559.924 150.473L529.105 150.327C528.666 150.327 528.374 150.035 528.374 149.597C528.374 149.159 528.666 148.867 529.105 148.867L559.924 149.013C560.362 149.013 560.655 149.305 560.655 149.743C560.801 150.181 560.362 150.473 559.924 150.473Z" fill="black"/>
<path d="M551.014 172.529C550.576 172.529 550.284 172.237 550.284 171.799L550.43 140.249C550.43 139.811 550.722 139.519 551.16 139.519C551.599 139.519 551.891 139.811 551.891 140.249L551.745 171.799C551.745 172.091 551.452 172.529 551.014 172.529Z" fill="black"/>
<path d="M540.79 233.877H443.365C443.219 233.877 443.073 233.731 443.073 233.584V156.901C443.073 156.754 443.219 156.608 443.365 156.608H540.79C540.936 156.608 541.082 156.754 541.082 156.901V233.584C541.082 233.731 540.936 233.877 540.79 233.877ZM443.657 233.292H540.644V157.193H443.657V233.292Z" fill="black"/>
<path d="M480.611 181.293L480.757 209.338L511.285 194.877L480.611 181.293Z" fill="#FE6A00"/>
<path d="M480.757 210.068C480.611 210.068 480.465 210.068 480.319 209.922C480.027 209.776 480.027 209.484 480.027 209.338L479.881 181.293C479.881 181.001 480.027 180.855 480.173 180.709C480.319 180.563 480.611 180.563 480.904 180.709L511.577 194.439C511.869 194.585 512.015 194.877 512.015 195.17C512.015 195.462 511.869 195.754 511.577 195.9L481.05 210.214C480.904 210.068 480.904 210.068 480.757 210.068ZM481.342 182.462L481.488 208.169L509.386 195.023L481.342 182.462Z" fill="black"/>
<path d="M433.286 172.529C432.848 172.529 432.556 172.237 432.556 171.799L432.702 140.249C432.702 139.811 432.994 139.519 433.433 139.519C433.871 139.519 434.163 139.811 434.163 140.249L434.017 171.799C434.163 172.091 433.725 172.529 433.286 172.529Z" fill="black"/>
<path d="M454.904 150.181L424.084 150.035C423.646 150.035 423.354 149.743 423.354 149.305C423.354 148.867 423.646 148.575 424.084 148.575L454.904 148.721C455.342 148.721 455.634 149.013 455.634 149.451C455.634 149.743 455.342 150.181 454.904 150.181Z" fill="black"/>
<path d="M454.904 241.618H424.084C423.646 241.618 423.354 241.326 423.354 240.888C423.354 240.45 423.646 240.157 424.084 240.157L454.904 240.304C455.342 240.304 455.634 240.596 455.634 241.034C455.634 241.326 455.342 241.618 454.904 241.618Z" fill="black"/>
<path d="M432.994 251.112C432.556 251.112 432.264 250.82 432.264 250.382L432.41 218.832C432.41 218.393 432.702 218.101 433.141 218.101C433.579 218.101 433.871 218.393 433.871 218.832L433.725 250.382C433.725 250.82 433.433 251.112 432.994 251.112Z" fill="black"/>
<path d="M550.722 251.112C550.284 251.112 549.992 250.82 549.992 250.382L550.138 218.832C550.138 218.393 550.43 218.101 550.868 218.101C551.307 218.101 551.599 218.393 551.599 218.832L551.453 250.382C551.453 250.82 551.014 251.112 550.722 251.112Z" fill="black"/>
<path d="M559.924 242.056L529.105 241.91C528.666 241.91 528.374 241.618 528.374 241.18C528.374 240.742 528.666 240.449 529.105 240.449L559.924 240.596C560.362 240.596 560.655 240.888 560.655 241.326C560.801 241.618 560.362 242.056 559.924 242.056Z" fill="black"/>
<path d="M559.924 150.473L529.105 150.327C528.666 150.327 528.374 150.035 528.374 149.597C528.374 149.159 528.666 148.867 529.105 148.867L559.924 149.013C560.362 149.013 560.655 149.305 560.655 149.743C560.801 150.181 560.362 150.473 559.924 150.473Z" fill="black"/>
<path d="M551.014 172.529C550.576 172.529 550.284 172.237 550.284 171.799L550.43 140.249C550.43 139.811 550.722 139.519 551.16 139.519C551.599 139.519 551.891 139.811 551.891 140.249L551.745 171.799C551.745 172.091 551.452 172.529 551.014 172.529Z" fill="black"/>
<path d="M540.79 233.877H443.365C443.219 233.877 443.073 233.731 443.073 233.584V156.901C443.073 156.754 443.219 156.608 443.365 156.608H540.79C540.936 156.608 541.082 156.754 541.082 156.901V233.584C541.082 233.731 540.936 233.877 540.79 233.877ZM443.657 233.292H540.644V157.193H443.657V233.292Z" fill="black"/>
<path d="M439.318 106.011C438.88 106.011 438.587 105.719 438.587 105.281V65.9896C438.587 65.5514 438.88 65.2593 439.318 65.2593C439.756 65.2593 440.048 65.5514 440.048 65.9896V105.281C440.048 105.719 439.756 106.011 439.318 106.011Z" fill="black"/>
<path d="M429.97 98.8539C429.531 98.8539 429.239 98.5618 429.239 98.1236V73.1466C429.239 72.7084 429.531 72.4163 429.97 72.4163C430.408 72.4163 430.7 72.7084 430.7 73.1466V98.1236C430.7 98.5618 430.408 98.8539 429.97 98.8539Z" fill="black"/>
<path d="M420.913 91.843C420.475 91.843 420.183 91.5509 420.183 91.1127V80.1578C420.183 79.7196 420.475 79.4275 420.913 79.4275C421.352 79.4275 421.644 79.7196 421.644 80.1578V91.1127C421.644 91.5509 421.352 91.843 420.913 91.843Z" fill="black"/>
<path d="M448.374 98.8539C447.935 98.8539 447.643 98.5618 447.643 98.1236V73.1466C447.643 72.7084 447.935 72.4163 448.374 72.4163C448.812 72.4163 449.104 72.7084 449.104 73.1466V98.1236C449.104 98.5618 448.812 98.8539 448.374 98.8539Z" fill="black"/>
<path d="M457.43 91.843C456.992 91.843 456.699 91.5509 456.699 91.1127V80.1578C456.699 79.7196 456.992 79.4275 457.43 79.4275C457.868 79.4275 458.16 79.7196 458.16 80.1578V91.1127C458.306 91.5509 457.868 91.843 457.43 91.843Z" fill="black"/>
<path d="M540.687 106.011C540.248 106.011 539.956 105.719 539.956 105.281V65.9896C539.956 65.5514 540.248 65.2593 540.687 65.2593C541.125 65.2593 541.417 65.5514 541.417 65.9896V105.281C541.417 105.719 541.125 106.011 540.687 106.011Z" fill="black"/>
<path d="M531.338 98.8539C530.9 98.8539 530.608 98.5618 530.608 98.1236V73.1466C530.608 72.7084 530.9 72.4163 531.338 72.4163C531.777 72.4163 532.069 72.7084 532.069 73.1466V98.1236C532.069 98.5618 531.777 98.8539 531.338 98.8539Z" fill="black"/>
<path d="M522.137 91.843C521.698 91.843 521.406 91.5509 521.406 91.1127V80.1578C521.406 79.7196 521.698 79.4275 522.137 79.4275C522.575 79.4275 522.867 79.7196 522.867 80.1578V91.1127C523.013 91.5509 522.575 91.843 522.137 91.843Z" fill="black"/>
<path d="M549.743 98.8539C549.304 98.8539 549.012 98.5618 549.012 98.1236V73.1466C549.012 72.7084 549.304 72.4163 549.743 72.4163C550.181 72.4163 550.473 72.7084 550.473 73.1466V98.1236C550.473 98.5618 550.181 98.8539 549.743 98.8539Z" fill="black"/>
<path d="M558.798 91.843C558.36 91.843 558.068 91.5509 558.068 91.1127V80.1578C558.068 79.7196 558.36 79.4275 558.798 79.4275C559.237 79.4275 559.529 79.7196 559.529 80.1578V91.1127C559.675 91.5509 559.237 91.843 558.798 91.843Z" fill="black"/>
<path d="M493.946 106.011C493.508 106.011 493.216 105.719 493.216 105.281V65.9896C493.216 65.5514 493.508 65.2593 493.946 65.2593C494.384 65.2593 494.676 65.5514 494.676 65.9896V105.281C494.676 105.719 494.384 106.011 493.946 106.011Z" fill="black"/>
<path d="M475.542 98.8539C475.103 98.8539 474.811 98.5618 474.811 98.1236V73.1466C474.811 72.7084 475.103 72.4163 475.542 72.4163C475.98 72.4163 476.272 72.7084 476.272 73.1466V98.1236C476.272 98.5618 475.98 98.8539 475.542 98.8539Z" fill="black"/>
<path d="M466.486 88.6292C466.048 88.6292 465.755 88.3371 465.755 87.8989V83.3709C465.755 82.9328 466.048 82.6406 466.486 82.6406C466.924 82.6406 467.216 82.9328 467.216 83.3709V87.8989C467.216 88.3371 466.924 88.6292 466.486 88.6292Z" fill="black"/>
<path d="M567.417 88.6292C566.978 88.6292 566.686 88.3371 566.686 87.8989V83.3709C566.686 82.9328 566.978 82.6406 567.417 82.6406C567.855 82.6406 568.147 82.9328 568.147 83.3709V87.8989C568.147 88.3371 567.855 88.6292 567.417 88.6292Z" fill="black"/>
<path d="M484.598 91.843C484.16 91.843 483.867 91.5509 483.867 91.1127V80.1578C483.867 79.7196 484.16 79.4275 484.598 79.4275C485.036 79.4275 485.328 79.7196 485.328 80.1578V91.1127C485.474 91.5509 485.036 91.843 484.598 91.843Z" fill="black"/>
<path d="M503.002 98.8539C502.564 98.8539 502.271 98.5618 502.271 98.1236V73.1466C502.271 72.7084 502.564 72.4163 503.002 72.4163C503.44 72.4163 503.732 72.7084 503.732 73.1466V98.1236C503.732 98.5618 503.44 98.8539 503.002 98.8539Z" fill="black"/>
<path d="M512.642 95.3487C512.204 95.3487 511.912 95.0566 511.912 94.6184V76.6524C511.912 76.2142 512.204 75.9221 512.642 75.9221C513.081 75.9221 513.373 76.2142 513.373 76.6524V94.6184C513.373 95.0566 513.081 95.3487 512.642 95.3487Z" fill="black"/>
<path d="M12.1194 277.026C15.1112 276.053 17.5969 273.874 19.2274 271.347C20.8674 268.674 21.7979 265.661 22.1454 262.61C22.2448 265.544 22.3441 268.479 23.3275 271.325C24.3205 274.025 26.3434 276.647 29.2199 277.422C26.4219 277.677 24.0916 279.719 22.7623 282.12C21.4329 284.52 20.8035 287.407 20.4752 290.166C20.3566 287.523 20.0923 284.871 18.9343 282.453C17.6402 279.879 15.2778 277.967 12.1194 277.026Z" fill="#FFBAA8"/>
<path d="M20.4274 290.895C19.9901 290.866 19.7178 290.555 19.7467 290.118C19.6185 287.621 19.3542 284.968 18.3324 282.705C17.1744 280.287 14.9481 278.53 12.0716 277.755C11.7801 277.736 11.5078 277.425 11.5366 276.988C11.5558 276.696 11.7208 276.414 12.0219 276.288C14.5669 275.431 17.0333 273.544 18.6734 270.871C20.1389 268.625 21.0598 265.759 21.5723 262.426C21.6012 261.988 21.9119 261.716 22.3491 261.745C22.7864 261.774 23.0587 262.084 23.0298 262.522C23.1388 265.31 23.238 268.244 24.0853 270.935C25.0687 273.781 27.1301 275.82 29.4236 276.557C29.7151 276.576 29.9777 277.032 29.9585 277.324C29.9297 277.761 29.619 278.033 29.3275 278.014C26.9667 278.298 24.8109 279.912 23.3358 282.303C22.0065 284.704 21.5325 287.454 21.2137 290.068C21.1753 290.651 20.8646 290.923 20.4274 290.895ZM14.3155 277.024C16.7355 278.062 18.5245 279.79 19.6921 282.063C20.2175 282.976 20.4417 284.016 20.6659 285.055C21.0343 283.908 21.4027 282.761 22.0626 281.634C23.2269 279.515 24.9455 277.872 26.8978 277.122C25.0704 275.977 23.4463 273.967 22.5798 271.568C22.0737 270.363 21.8687 269.032 21.654 267.847C21.1207 269.276 20.597 270.559 19.7818 271.822C18.3163 274.068 16.4424 275.847 14.3155 277.024Z" fill="black"/>
<path d="M86.0748 245.453C88.4549 244.878 90.4553 243.399 91.7462 241.581C93.0371 239.764 93.7546 237.762 94.0445 235.585C94.0557 237.635 94.2127 239.695 95.1176 241.511C96.0129 243.473 97.6562 245.191 99.969 245.637C97.7635 245.784 95.7727 247.117 94.7829 248.808C93.6473 250.49 93.231 252.365 93.1061 254.26C92.9299 252.492 92.7632 250.578 91.8487 248.907C90.4873 247.354 88.6695 246.063 86.0748 245.453Z" fill="#FFBAA8"/>
<path d="M92.8931 255.271C92.4558 255.242 92.1836 254.931 92.2028 254.64C92.0266 252.871 91.8504 251.103 91.072 249.588C90.1574 247.918 88.33 246.772 86.0269 246.181C85.7354 246.162 85.4631 245.852 85.4919 245.414C85.5111 245.123 85.6857 244.695 86.123 244.724C88.2115 244.13 90.047 242.933 91.3379 241.115C92.4638 239.58 93.1717 237.723 93.4615 235.547C93.4904 235.109 93.8011 234.837 94.2383 234.866C94.6756 234.895 94.9478 235.205 94.919 235.643C94.9398 237.547 95.0969 239.607 95.8656 241.268C96.761 243.23 98.2777 244.647 100.153 245.063C100.59 245.092 100.707 245.539 100.688 245.831C100.659 246.268 100.349 246.54 100.057 246.521C98.2889 246.697 96.4631 247.748 95.4733 249.439C94.4931 250.985 94.0767 252.86 93.8157 254.6C93.6507 254.881 93.3399 255.154 92.8931 255.271ZM88.4261 245.315C90.127 246.159 91.5173 247.275 92.3053 248.645C92.7041 249.257 92.9571 249.859 93.0645 250.451C93.2582 249.732 93.5881 249.168 94.0734 248.469C94.8887 247.205 96.1316 246.116 97.6371 245.483C96.2277 244.658 95.1385 243.415 94.5154 241.764C94.272 241.016 94.0286 240.268 93.7851 239.52C93.436 240.376 92.9507 241.075 92.4654 241.775C91.3299 243.457 89.9412 244.537 88.4261 245.315Z" fill="black"/>
<path d="M36.4597 225.348C40.7921 224.023 43.7551 223.487 46.0358 219.978C48.3165 216.468 49.5465 211.133 49.9613 207.062C50.2945 210.89 50.6276 214.718 52.1556 218.185C53.8293 221.662 57.1255 224.954 61.3234 225.67C57.1944 226.129 53.7958 228.833 51.8258 232.07C49.8558 235.307 49.3241 238.931 48.9381 242.565C48.5761 239.175 48.3198 234.181 46.4715 231.131C44.6328 227.936 41.231 226.248 36.4597 225.348Z" fill="#FFBAA8"/>
<path d="M49.0261 243.449C48.7346 243.43 48.3166 243.11 48.3358 242.818C48.2285 242.226 48.1308 241.487 48.1789 240.759C47.9434 237.669 47.4549 233.977 45.9958 231.686C44.274 228.937 41.1732 227.123 36.2562 226.213C35.9647 226.194 35.6924 225.883 35.5755 225.436C35.5947 225.145 35.7694 224.717 36.0609 224.736C36.362 224.61 36.8088 224.493 37.1099 224.366C40.8401 223.295 43.2297 222.574 45.1805 219.628C47.7719 215.847 48.7681 209.618 48.9315 207.141C48.9603 206.703 49.271 206.431 49.7082 206.46C50.1455 206.489 50.4178 206.799 50.3985 207.091C50.7413 210.773 50.9287 214.591 52.6121 217.923C54.4123 221.701 57.6107 224.254 61.216 225.077C61.6532 225.106 61.7798 225.407 61.8967 225.854C61.8678 226.291 61.5572 226.563 61.2657 226.544C57.7197 227.042 54.3595 229.163 52.3799 232.546C50.5653 235.646 49.8878 239.261 49.6668 242.613C49.9294 243.07 49.6187 243.342 49.0261 243.449C49.1718 243.459 49.1718 243.459 49.0261 243.449ZM39.3938 225.249C43.1256 226.373 45.6434 228.149 47.3748 230.752C48.4351 232.432 49.0197 234.666 49.3032 237.027C49.71 235.297 50.4179 233.441 51.3981 231.895C53.0478 229.076 55.6792 226.908 58.6807 225.788C55.6968 224.42 53.0813 221.906 51.6799 218.74C50.7845 216.778 50.1903 214.689 49.878 212.765C49.2678 215.36 48.1915 218.363 46.7261 220.609C44.7945 223.263 42.3857 224.275 39.3938 225.249Z" fill="black"/>
<path d="M117.172 333.283L59.0824 270.754L67.044 263.228L125.134 325.757C126.359 327.155 126.671 329.078 124.962 330.576L121.991 333.454C120.438 334.815 118.543 334.691 117.172 333.283Z" fill="black"/>
<path d="M119.389 335.185C118.369 335.118 117.377 334.614 116.697 333.837L58.6068 271.308C58.3345 270.997 58.3634 270.56 58.6741 270.288L66.6357 262.762C66.7911 262.626 66.9465 262.49 67.2379 262.509C67.3837 262.518 67.6751 262.538 67.8113 262.693L125.901 325.222C126.728 326.008 127.098 327.057 127.176 328.087C127.245 329.263 126.74 330.254 125.808 331.071L122.837 333.949C121.604 334.892 120.409 335.253 119.389 335.185ZM117.794 332.738C118.747 333.826 120.204 333.922 121.593 332.842L124.554 330.11C125.176 329.565 125.515 328.856 125.554 328.273C125.592 327.69 125.193 327.078 124.794 326.466L67.2491 264.559L60.3846 270.986L117.794 332.738Z" fill="black"/>
<path d="M72.4726 285.25L54.9699 266.53C53.8808 265.287 53.996 263.538 55.0931 262.44L58.8313 259.027C60.0838 257.792 61.8231 258.053 62.9219 259.15L80.4246 277.87L72.4726 285.25Z" fill="white"/>
<path d="M72.4243 285.979C72.2786 285.969 71.987 285.95 71.8509 285.795L54.3482 267.075C52.9772 265.667 53.131 263.335 54.5484 261.818L58.2865 258.405C59.8497 256.898 62.036 257.042 63.5431 258.605L81.0458 277.325C81.3181 277.636 81.2893 278.073 80.9786 278.345L73.0169 285.871C72.8616 286.008 72.7158 285.998 72.4243 285.979ZM61.0366 258.879C60.4536 258.841 59.8514 259.094 59.3853 259.502L55.6471 262.915C54.8607 263.742 54.7646 265.199 55.591 265.986L72.5396 284.23L79.4042 277.802L62.4556 259.558C62.0472 259.092 61.6196 258.918 61.0366 258.879Z" fill="black"/>
<path d="M71.1575 280.772L71.0117 280.763C70.8756 280.607 70.8852 280.462 71.0309 280.471L75.7109 276.095C75.8662 275.959 76.012 275.969 76.0024 276.115C76.1385 276.27 76.1289 276.416 75.9832 276.406L71.3032 280.782L71.1575 280.772Z" fill="black"/>
<path d="M156.291 497.561C174.549 497.999 192.661 498.291 210.919 498.729V489.381L150.156 487.921L156.291 497.561Z" fill="white"/>
<path d="M210.919 499.606C211.065 499.606 211.357 499.46 211.503 499.46C211.649 499.313 211.795 499.167 211.795 498.875V489.527C211.795 489.089 211.503 488.797 211.065 488.797L150.302 487.336C150.01 487.336 149.718 487.482 149.572 487.774C149.426 488.067 149.426 488.359 149.572 488.505L155.706 498.145C155.852 498.291 156.145 498.437 156.291 498.437L210.919 499.606ZM210.188 490.257V497.999L156.729 496.83L151.617 488.797L210.188 490.257Z" fill="black"/>
<path d="M1.02397 412.843L119.775 413.428L160.673 497.561L43.0906 497.269L1.02397 412.843Z" fill="white"/>
<path d="M160.673 498.437C160.965 498.437 161.111 498.291 161.257 498.145C161.403 497.853 161.403 497.707 161.257 497.415L120.359 413.282C120.213 412.99 119.921 412.844 119.628 412.844L0.87793 412.259C0.5858 412.259 0.439743 412.405 0.293671 412.551C0.147614 412.844 0.147614 412.99 0.293671 413.282L42.3603 497.707C42.5064 497.999 42.7985 498.145 43.0906 498.145L160.673 498.437ZM119.336 414.304L159.504 496.831L43.5288 496.539L2.19254 413.574L119.336 414.304Z" fill="black"/>
<path d="M76.1012 447.169C72.7417 446.877 69.0901 447.753 67.6295 450.82C66.3149 453.888 67.3374 457.831 69.8205 460.022C72.3036 462.359 75.9552 463.09 79.3147 462.359C81.0674 461.921 82.8202 461.045 83.8427 459.584C84.573 458.562 84.8651 457.247 84.8651 455.933C85.0112 451.697 83.1123 447.753 76.1012 447.169Z" fill="white"/>
<path d="M76.8317 463.382C77.7081 463.382 78.5846 463.236 79.4609 463.09C81.0676 462.798 83.2586 461.921 84.5732 460.022C85.3035 458.854 85.7417 457.539 85.7417 455.933C85.7417 451.989 84.135 447.169 76.2475 446.292C71.8656 445.854 68.36 447.461 67.0454 450.382C65.5848 453.742 66.6073 457.977 69.3825 460.461C71.2813 462.359 74.0565 463.382 76.8317 463.382ZM74.7869 447.753C75.225 447.753 75.6633 447.753 75.9554 447.753C81.5059 448.337 84.135 450.966 84.135 455.786C84.135 456.663 83.989 457.831 83.2586 459C82.5283 460.168 81.0676 461.045 79.1688 461.483C75.9554 462.213 72.5959 461.337 70.4049 459.438C68.0679 457.247 67.1915 453.742 68.36 451.112C69.6746 448.337 72.888 447.753 74.7869 447.753Z" fill="black"/>
<path d="M494.91 540.499H481.645C470.899 540.499 462.167 531.768 462.167 521.022V473H514.387V521.022C514.387 531.768 505.656 540.499 494.91 540.499Z" fill="#FAE999"/>
<path d="M512.876 488.447C512.876 488.447 522.111 490.127 522.111 502.552C522.111 514.977 512.204 514.137 512.204 514.137V524.38C512.204 524.38 529.834 521.19 530.17 501.041C530.506 480.388 512.708 479.38 512.708 479.38L512.876 488.447Z" fill="#FAE999"/>
<path d="M514.387 474.008V522.03" stroke="black" stroke-width="1.70257" stroke-miterlimit="10" stroke-linecap="round" stroke-linejoin="round"/>
<path d="M522.111 502.552C522.111 502.552 522.111 512.291 514.555 514.138" stroke="black" stroke-width="1.70257" stroke-miterlimit="10" stroke-linecap="round" stroke-linejoin="round"/>
<path d="M462 522.197C462 522.197 462.335 538.316 479.966 540.835" stroke="black" stroke-width="1.70257" stroke-miterlimit="10" stroke-linecap="round" stroke-linejoin="round"/>
<path d="M462.167 497.683V473.168H483.156" stroke="black" stroke-width="1.70257" stroke-miterlimit="10" stroke-linecap="round" stroke-linejoin="round"/>
<path d="M514.555 488.951C514.555 488.951 520.768 490.798 521.775 498.018" stroke="black" stroke-width="1.70257" stroke-miterlimit="10" stroke-linecap="round" stroke-linejoin="round"/>
<path d="M514.555 479.38C514.555 479.38 530.171 482.235 530.171 501.208C530.171 520.182 515.395 524.044 515.395 524.044" stroke="black" stroke-width="1.70257" stroke-miterlimit="10" stroke-linecap="round" stroke-linejoin="round"/>
<path d="M469.22 476.358H508.51C509.686 476.358 510.021 477.701 509.014 478.373C505.992 480.22 499.947 482.571 489.201 482.571C478.119 482.571 471.906 480.22 468.716 478.373C467.708 477.869 468.212 476.358 469.22 476.358Z" fill="black"/>
<path d="M30.2832 386.159C29.9832 386.159 29.7832 385.959 29.7832 385.659V358.759C29.7832 358.459 29.9832 358.259 30.2832 358.259C30.5832 358.259 30.7832 358.459 30.7832 358.759V385.659C30.7832 385.959 30.5832 386.159 30.2832 386.159Z" fill="black"/>
<path d="M23.8831 381.259C23.5831 381.259 23.3831 381.059 23.3831 380.759V363.659C23.3831 363.359 23.5831 363.159 23.8831 363.159C24.1831 363.159 24.3831 363.359 24.3831 363.659V380.759C24.3831 381.059 24.1831 381.259 23.8831 381.259Z" fill="black"/>
<path d="M17.6831 376.459C17.3831 376.459 17.1831 376.259 17.1831 375.959V368.459C17.1831 368.159 17.3831 367.959 17.6831 367.959C17.9831 367.959 18.1831 368.159 18.1831 368.459V375.959C18.1831 376.259 17.9831 376.459 17.6831 376.459Z" fill="black"/>
<path d="M36.4832 381.259C36.1832 381.259 35.9832 381.059 35.9832 380.759V363.659C35.9832 363.359 36.1832 363.159 36.4832 363.159C36.7832 363.159 36.9832 363.359 36.9832 363.659V380.759C36.9832 381.059 36.7832 381.259 36.4832 381.259Z" fill="black"/>
<path d="M42.6831 376.459C42.3831 376.459 42.1831 376.259 42.1831 375.959V368.459C42.1831 368.159 42.3831 367.959 42.6831 367.959C42.9831 367.959 43.1831 368.159 43.1831 368.459V375.959C43.2831 376.259 42.9831 376.459 42.6831 376.459Z" fill="black"/>
<path d="M99.6831 386.159C99.3831 386.159 99.1831 385.959 99.1831 385.659V358.759C99.1831 358.459 99.3831 358.259 99.6831 358.259C99.9831 358.259 100.183 358.459 100.183 358.759V385.659C100.183 385.959 99.9831 386.159 99.6831 386.159Z" fill="black"/>
<path d="M93.2832 381.259C92.9832 381.259 92.7832 381.059 92.7832 380.759V363.659C92.7832 363.359 92.9832 363.159 93.2832 363.159C93.5832 363.159 93.7832 363.359 93.7832 363.659V380.759C93.7832 381.059 93.5832 381.259 93.2832 381.259Z" fill="black"/>
<path d="M86.9832 376.459C86.6832 376.459 86.4832 376.259 86.4832 375.959V368.459C86.4832 368.159 86.6832 367.959 86.9832 367.959C87.2832 367.959 87.4832 368.159 87.4832 368.459V375.959C87.5832 376.259 87.2832 376.459 86.9832 376.459Z" fill="black"/>
<path d="M105.883 381.259C105.583 381.259 105.383 381.059 105.383 380.759V363.659C105.383 363.359 105.583 363.159 105.883 363.159C106.183 363.159 106.383 363.359 106.383 363.659V380.759C106.383 381.059 106.183 381.259 105.883 381.259Z" fill="black"/>
<path d="M112.083 376.459C111.783 376.459 111.583 376.259 111.583 375.959V368.459C111.583 368.159 111.783 367.959 112.083 367.959C112.383 367.959 112.583 368.159 112.583 368.459V375.959C112.683 376.259 112.383 376.459 112.083 376.459Z" fill="black"/>
<path d="M67.6831 386.159C67.3831 386.159 67.1831 385.959 67.1831 385.659V358.759C67.1831 358.459 67.3831 358.259 67.6831 358.259C67.9831 358.259 68.1831 358.459 68.1831 358.759V385.659C68.1831 385.959 67.9831 386.159 67.6831 386.159Z" fill="black"/>
<path d="M55.083 381.259C54.783 381.259 54.583 381.059 54.583 380.759V363.659C54.583 363.359 54.783 363.159 55.083 363.159C55.383 363.159 55.583 363.359 55.583 363.659V380.759C55.583 381.059 55.383 381.259 55.083 381.259Z" fill="black"/>
<path d="M48.8831 374.259C48.5831 374.259 48.3831 374.059 48.3831 373.759V370.659C48.3831 370.359 48.5831 370.159 48.8831 370.159C49.1831 370.159 49.3831 370.359 49.3831 370.659V373.759C49.3831 374.059 49.1831 374.259 48.8831 374.259Z" fill="black"/>
<path d="M117.983 374.259C117.683 374.259 117.483 374.059 117.483 373.759V370.659C117.483 370.359 117.683 370.159 117.983 370.159C118.283 370.159 118.483 370.359 118.483 370.659V373.759C118.483 374.059 118.283 374.259 117.983 374.259Z" fill="black"/>
<path d="M61.2832 376.459C60.9832 376.459 60.7832 376.259 60.7832 375.959V368.459C60.7832 368.159 60.9832 367.959 61.2832 367.959C61.5832 367.959 61.7832 368.159 61.7832 368.459V375.959C61.8832 376.259 61.5832 376.459 61.2832 376.459Z" fill="black"/>
<path d="M73.8831 381.259C73.5831 381.259 73.3831 381.059 73.3831 380.759V363.659C73.3831 363.359 73.5831 363.159 73.8831 363.159C74.1831 363.159 74.3831 363.359 74.3831 363.659V380.759C74.3831 381.059 74.1831 381.259 73.8831 381.259Z" fill="black"/>
<path d="M80.4832 378.859C80.1832 378.859 79.9832 378.659 79.9832 378.359V366.059C79.9832 365.759 80.1832 365.559 80.4832 365.559C80.7832 365.559 80.9832 365.759 80.9832 366.059V378.359C80.9832 378.659 80.7832 378.859 80.4832 378.859Z" fill="black"/>
<defs>
<pattern id="pattern0" patternContentUnits="objectBoundingBox" width="1" height="1">
<use xlink:href="#image0_324_14401" transform="matrix(0.000415692 0 0 0.000256805 -0.00174037 0)"/>
</pattern>
<image id="image0_324_14401" width="2414" height="3894" xlink:href="/png/woman_with_phone.png"/>
</defs>
</svg>
