<svg height="383" viewBox="0 0 420 383" fill="none" xmlns="http://www.w3.org/2000/svg">
<g clip-path="url(#clip0_310_15416)">
<path d="M15.1675 196.832C15.1675 196.832 17.3827 266.753 75.8447 313.302C134.307 359.852 215.21 363.218 280.799 367.642C346.388 372.067 396.664 335.038 404.272 278.967C411.881 222.992 361.798 206.546 334.638 142.781C307.478 79.0158 309.885 58.0492 252.387 18.8091C194.888 -20.3349 104.931 3.80549 57.7379 70.9369C10.6408 138.165 15.1675 196.832 15.1675 196.832Z" fill="#F0E6FF"/>
<path d="M287.993 327.878C304.782 327.878 318.393 324.117 318.393 319.478C318.393 314.839 304.782 311.078 287.993 311.078C271.203 311.078 257.593 314.839 257.593 319.478C257.593 324.117 271.203 327.878 287.993 327.878Z" fill="black"/>
<path d="M130.893 338.48C99.293 338.48 94.593 333.88 94.093 330.18C93.893 328.58 94.393 327.18 95.493 325.98C103.993 317.08 153.093 320.78 221.093 326.08C230.593 326.78 240.393 327.58 250.393 328.28C319.093 333.38 346.693 332.68 352.393 325.78C353.593 324.38 353.793 322.58 353.193 320.18C350.493 310.18 314.093 310.18 300.393 310.98C299.693 310.98 299.193 310.48 299.093 309.88C299.093 309.18 299.593 308.68 300.193 308.58C305.493 308.28 351.793 305.98 355.493 319.58C356.393 322.68 355.993 325.28 354.293 327.28C347.893 335.08 321.593 335.88 250.293 330.58C240.193 329.88 230.393 329.08 220.993 328.38C156.193 323.38 105.093 319.48 97.293 327.58C96.593 328.28 96.393 328.98 96.493 329.88C96.793 332.28 102.393 337.48 148.493 335.68C174.193 334.68 200.093 331.88 200.293 331.78C200.893 331.68 201.493 332.18 201.593 332.88C201.693 333.58 201.193 334.08 200.493 334.18C200.193 334.18 174.293 336.98 148.493 338.08C141.993 338.38 136.093 338.48 130.893 338.48Z" fill="#FFBAA8" stroke="black" stroke-width="1.1133" stroke-miterlimit="10"/>
<path d="M290.705 320.463C307.969 310.825 314.152 289.016 304.514 271.752C294.875 254.487 273.067 248.305 255.802 257.943C238.538 267.581 232.355 289.39 241.993 306.655C251.632 323.919 273.44 330.101 290.705 320.463Z" fill="white"/>
<mask id="mask0_310_15416" style="mask-type:luminance" maskUnits="userSpaceOnUse" x="237" y="253" width="73" height="73">
<path d="M290.705 320.463C307.969 310.825 314.152 289.016 304.514 271.752C294.875 254.487 273.067 248.305 255.802 257.943C238.538 267.581 232.355 289.39 241.993 306.655C251.632 323.919 273.44 330.101 290.705 320.463Z" fill="white"/>
</mask>
<g mask="url(#mask0_310_15416)">
<path d="M283.205 323.702C302.229 318.213 313.167 298.405 307.678 279.381C305.599 272.175 301.476 266.183 296.121 261.691C300.061 276.791 298.174 301.273 257.348 321.379C265.105 325.178 274.174 326.308 283.205 323.702Z" fill="#C6FF00"/>
</g>
<mask id="mask1_310_15416" style="mask-type:luminance" maskUnits="userSpaceOnUse" x="237" y="253" width="73" height="73">
<path d="M290.705 320.463C307.969 310.825 314.152 289.016 304.514 271.752C294.875 254.487 273.067 248.305 255.802 257.943C238.538 267.581 232.355 289.39 241.993 306.655C251.632 323.919 273.44 330.101 290.705 320.463Z" fill="white"/>
</mask>
<g mask="url(#mask1_310_15416)">
<path opacity="0.3" d="M283.205 323.702C302.229 318.213 313.167 298.405 307.678 279.381C305.599 272.175 301.476 266.183 296.121 261.691C300.061 276.791 298.174 301.273 257.348 321.379C265.105 325.178 274.174 326.308 283.205 323.702Z" fill="white"/>
</g>
<mask id="mask2_310_15416" style="mask-type:luminance" maskUnits="userSpaceOnUse" x="237" y="253" width="73" height="73">
<path d="M290.705 320.463C307.969 310.825 314.152 289.016 304.514 271.752C294.875 254.487 273.067 248.305 255.802 257.943C238.538 267.581 232.355 289.39 241.993 306.655C251.632 323.919 273.44 330.101 290.705 320.463Z" fill="white"/>
</mask>
<g mask="url(#mask2_310_15416)">
</g>
<g clip-path="url(#clip1_310_15416)">
<g filter="url(#filter0_d_310_15416)">
<circle cx="272.576" cy="289.374" r="35.947" transform="rotate(-16.0943 272.576 289.374)" fill="#FFBAA8"/>
<circle cx="272.576" cy="289.374" r="35.3939" transform="rotate(-16.0943 272.576 289.374)" stroke="black" stroke-width="1.10606"/>
</g>
<path d="M286.691 282.728C288.928 283.144 289.733 285.934 288.061 287.478L270.967 303.265C269.456 304.66 267.004 303.976 266.434 302L260.651 281.959C260.081 279.983 261.791 278.098 263.814 278.474L286.691 282.728Z" fill="#FE6A00" stroke="black" stroke-width="1.10606"/>
</g>
<path d="M290.705 320.463C307.969 310.825 314.152 289.016 304.514 271.752C294.875 254.487 273.067 248.305 255.802 257.943C238.538 267.581 232.355 289.39 241.993 306.655C251.632 323.919 273.44 330.101 290.705 320.463Z" stroke="black" stroke-width="1.11335" stroke-miterlimit="10" stroke-linecap="round" stroke-linejoin="round"/>
</g>
<path d="M9.2498 244.699H0.0498047" stroke="black" stroke-width="1.1133" stroke-miterlimit="10"/>
<path d="M381.05 244.699H23.75" stroke="black" stroke-width="1.1133" stroke-miterlimit="10"/>
<g clip-path="url(#clip2_310_15416)">
<path d="M192.25 298.5C169.95 298.5 156.65 278.7 151.85 261.4L151.65 260.8C150.75 257.3 152.85 253.7 156.35 252.8C159.85 251.9 163.45 254 164.35 257.5L164.45 258C168.05 271.2 177.85 286.3 193.65 285.5C199.95 285.1 205.05 282.7 209.15 277.9C217.85 268 221.65 246.4 220.85 235.5C220.65 232.6 222.75 230.1 225.65 229.9C228.55 229.7 231.05 231.8 231.25 234.7C232.25 246.8 230.95 272.8 219.05 286.5C212.55 293.9 204.35 298 194.45 298.5C193.65 298.4 192.95 298.5 192.25 298.5Z" fill="white"/>
<mask id="mask3_310_15416" style="mask-type:luminance" maskUnits="userSpaceOnUse" x="151" y="229" width="81" height="70">
<path d="M192.25 298.5C169.95 298.5 156.65 278.7 151.85 261.4L151.65 260.8C150.75 257.3 152.85 253.7 156.35 252.8C159.85 251.9 163.45 254 164.35 257.5L164.45 258C168.05 271.2 177.85 286.3 193.65 285.5C199.95 285.1 205.05 282.7 209.15 277.9C217.85 268 221.65 246.4 220.85 235.5C220.65 232.6 222.75 230.1 225.65 229.9C228.55 229.7 231.05 231.8 231.25 234.7C232.25 246.8 230.95 272.8 219.05 286.5C212.55 293.9 204.35 298 194.45 298.5C193.65 298.4 192.95 298.5 192.25 298.5Z" fill="white"/>
</mask>
<g mask="url(#mask3_310_15416)">
<path d="M225.549 229.798C222.649 229.998 220.549 232.498 220.749 235.398C221.149 240.698 220.449 248.598 218.649 256.398C220.949 256.298 223.549 256.498 226.449 257.398C226.049 262.698 224.349 270.598 218.849 278.298C209.149 291.798 194.549 296.098 183.249 294.498C178.149 293.798 172.349 291.098 167.449 288.398C173.949 294.398 182.149 298.498 192.249 298.498C192.949 298.498 193.649 298.498 194.449 298.398C204.249 297.798 212.549 293.798 219.049 286.398C230.949 272.798 232.249 246.698 231.249 234.598C230.949 231.698 228.449 229.598 225.549 229.798Z" fill="#CCDCF6"/>
</g>
<mask id="mask4_310_15416" style="mask-type:luminance" maskUnits="userSpaceOnUse" x="151" y="229" width="81" height="70">
<path d="M192.25 298.5C169.95 298.5 156.65 278.7 151.85 261.4L151.65 260.8C150.75 257.3 152.85 253.7 156.35 252.8C159.85 251.9 163.45 254 164.35 257.5L164.45 258C168.05 271.2 177.85 286.3 193.65 285.5C199.95 285.1 205.05 282.7 209.15 277.9C217.85 268 221.65 246.4 220.85 235.5C220.65 232.6 222.75 230.1 225.65 229.9C228.55 229.7 231.05 231.8 231.25 234.7C232.25 246.8 230.95 272.8 219.05 286.5C212.55 293.9 204.35 298 194.45 298.5C193.65 298.4 192.95 298.5 192.25 298.5Z" fill="white"/>
</mask>
<g mask="url(#mask4_310_15416)">
<path opacity="0.5" d="M225.549 229.798C222.649 229.998 220.549 232.498 220.749 235.398C221.149 240.698 220.449 248.598 218.649 256.398C220.949 256.298 223.549 256.498 226.449 257.398C226.049 262.698 224.349 270.598 218.849 278.298C209.149 291.798 194.549 296.098 183.249 294.498C178.149 293.798 172.349 291.098 167.449 288.398C173.949 294.398 182.149 298.498 192.249 298.498C192.949 298.498 193.649 298.498 194.449 298.398C204.249 297.798 212.549 293.798 219.049 286.398C230.949 272.798 232.249 246.698 231.249 234.598C230.949 231.698 228.449 229.598 225.549 229.798Z" fill="white"/>
</g>
<path d="M192.25 298.5C169.95 298.5 156.65 278.7 151.85 261.4L151.65 260.8C150.75 257.3 152.85 253.7 156.35 252.8C159.85 251.9 163.45 254 164.35 257.5L164.45 258C168.05 271.2 177.85 286.3 193.65 285.5C199.95 285.1 205.05 282.7 209.15 277.9C217.85 268 221.65 246.4 220.85 235.5C220.65 232.6 222.75 230.1 225.65 229.9C228.55 229.7 231.05 231.8 231.25 234.7C232.25 246.8 230.95 272.8 219.05 286.5C212.55 293.9 204.35 298 194.45 298.5C193.65 298.4 192.95 298.5 192.25 298.5Z" stroke="black" stroke-width="1.1133" stroke-miterlimit="10" stroke-linecap="round" stroke-linejoin="round"/>
<path d="M179.349 284.9C179.849 282.5 174.049 286.3 169.149 289.9C170.949 291.4 172.949 292.8 174.949 294C176.749 291.1 178.849 287.3 179.349 284.9Z" fill="#CCDCF6" stroke="black" stroke-width="1.1133" stroke-miterlimit="10" stroke-linecap="round" stroke-linejoin="round"/>
<path d="M192.25 298.5C192.95 298.5 193.65 298.5 194.45 298.4C196.65 298.3 198.75 298 200.75 297.5C197.95 293.9 194.15 289.1 193.05 288.8C191.85 288.4 189.35 294.5 188.05 298.2C189.35 298.4 190.75 298.5 192.25 298.5Z" fill="#CCDCF6" stroke="black" stroke-width="1.1133" stroke-miterlimit="10" stroke-linecap="round" stroke-linejoin="round"/>
<path d="M164.45 257.9L164.35 257.4C163.45 253.9 159.85 251.8 156.35 252.7C152.85 253.6 150.75 257.2 151.65 260.7L151.85 261.3C153.45 267.1 155.95 273.1 159.45 278.6L171.35 272.9C168.15 268.3 165.85 263 164.45 257.9Z" fill="#CCDCF6" stroke="black" stroke-width="1.1133" stroke-miterlimit="10" stroke-linecap="round" stroke-linejoin="round"/>
<path d="M218.95 286.403C219.85 285.403 220.75 284.203 221.45 283.103C217.65 281.803 212.05 280.003 209.95 280.203C207.45 280.403 210.85 288.403 212.55 292.203C214.85 290.603 217.05 288.603 218.95 286.403Z" fill="#CCDCF6" stroke="black" stroke-width="1.1133" stroke-miterlimit="10" stroke-linecap="round" stroke-linejoin="round"/>
<path d="M219.15 265.002C218.75 265.802 223.65 269.402 226.95 271.602C227.95 268.502 228.85 265.302 229.45 262.102C225.45 263.002 219.55 264.202 219.15 265.002Z" fill="#CCDCF6" stroke="black" stroke-width="1.1133" stroke-miterlimit="10" stroke-linecap="round" stroke-linejoin="round"/>
<path d="M231.149 250.202C231.349 247.402 231.449 244.602 231.449 242.102C228.049 244.002 223.949 246.602 223.949 248.302C223.949 250.102 227.749 250.302 231.149 250.202Z" fill="#CCDCF6" stroke="black" stroke-width="1.1133" stroke-miterlimit="10" stroke-linecap="round" stroke-linejoin="round"/>
<path d="M177.249 172.898C177.249 172.898 167.549 200.998 172.749 222.898C178.049 244.798 197.149 251.998 197.149 251.998C197.149 251.998 182.949 256.998 186.249 264.698C189.449 272.398 201.649 267.398 205.649 264.898C209.649 262.398 214.649 254.898 215.349 249.998C216.049 244.998 215.849 242.298 215.849 242.298C215.849 242.298 232.049 240.598 242.949 231.598C242.949 231.598 252.649 239.298 259.649 237.798C266.649 236.298 276.549 223.898 275.549 212.698C274.549 201.498 268.049 201.498 264.149 203.198C260.149 204.898 258.649 206.698 258.649 206.698C258.649 206.698 264.349 199.698 258.649 189.998C252.949 180.298 242.749 179.498 242.749 179.498C242.749 179.498 239.749 163.598 230.849 157.598C221.849 151.698 189.949 145.498 177.249 172.898Z" fill="white"/>
<mask id="mask5_310_15416" style="mask-type:luminance" maskUnits="userSpaceOnUse" x="171" y="152" width="105" height="117">
<path d="M177.249 172.898C177.249 172.898 167.549 200.998 172.749 222.898C178.049 244.798 197.149 251.998 197.149 251.998C197.149 251.998 182.949 256.998 186.249 264.698C189.449 272.398 201.649 267.398 205.649 264.898C209.649 262.398 214.649 254.898 215.349 249.998C216.049 244.998 215.849 242.298 215.849 242.298C215.849 242.298 232.049 240.598 242.949 231.598C242.949 231.598 252.649 239.298 259.649 237.798C266.649 236.298 276.549 223.898 275.549 212.698C274.549 201.498 268.049 201.498 264.149 203.198C260.149 204.898 258.649 206.698 258.649 206.698C258.649 206.698 264.349 199.698 258.649 189.998C252.949 180.298 242.749 179.498 242.749 179.498C242.749 179.498 239.749 163.598 230.849 157.598C221.849 151.698 189.949 145.498 177.249 172.898Z" fill="white"/>
</mask>
<g mask="url(#mask5_310_15416)">
<path d="M251.25 182.498C244.15 194.198 229.85 207.698 207.35 209.698C187.55 211.398 176.45 207.498 171.35 204.798C172.05 187.998 177.25 172.798 177.25 172.798C189.95 145.398 221.75 151.598 230.75 157.598C239.75 163.598 242.65 179.498 242.65 179.498C242.65 179.498 246.75 179.898 251.25 182.498ZM264.15 203.198C260.15 204.898 258.65 206.698 258.65 206.698C258.65 206.698 260.35 204.598 260.95 201.098C247.45 207.798 248.55 222.098 246.85 222.098C244.75 222.098 243.75 214.898 243.75 214.898C243.75 214.898 241.15 225.198 225.75 232.398C210.35 239.598 192.85 233.898 192.85 233.898C192.85 233.898 196.45 242.098 187.15 241.098C184.05 240.798 181.65 239.698 179.95 238.498C187.45 248.398 197.05 251.998 197.05 251.998C197.05 251.998 182.85 256.998 186.15 264.698C189.35 272.398 201.55 267.398 205.55 264.898C209.55 262.398 214.55 254.898 215.25 249.998C215.95 244.998 215.75 242.298 215.75 242.298C215.75 242.298 231.95 240.598 242.85 231.598C242.85 231.598 252.55 239.298 259.55 237.798C266.55 236.298 276.45 223.898 275.45 212.698C274.55 201.498 268.05 201.498 264.15 203.198Z" fill="#CCDCF6"/>
</g>
<mask id="mask6_310_15416" style="mask-type:luminance" maskUnits="userSpaceOnUse" x="171" y="152" width="105" height="117">
<path d="M177.249 172.898C177.249 172.898 167.549 200.998 172.749 222.898C178.049 244.798 197.149 251.998 197.149 251.998C197.149 251.998 182.949 256.998 186.249 264.698C189.449 272.398 201.649 267.398 205.649 264.898C209.649 262.398 214.649 254.898 215.349 249.998C216.049 244.998 215.849 242.298 215.849 242.298C215.849 242.298 232.049 240.598 242.949 231.598C242.949 231.598 252.649 239.298 259.649 237.798C266.649 236.298 276.549 223.898 275.549 212.698C274.549 201.498 268.049 201.498 264.149 203.198C260.149 204.898 258.649 206.698 258.649 206.698C258.649 206.698 264.349 199.698 258.649 189.998C252.949 180.298 242.749 179.498 242.749 179.498C242.749 179.498 239.749 163.598 230.849 157.598C221.849 151.698 189.949 145.498 177.249 172.898Z" fill="white"/>
</mask>
<g mask="url(#mask6_310_15416)">
<path opacity="0.5" d="M251.25 182.498C244.15 194.198 229.85 207.698 207.35 209.698C187.55 211.398 176.45 207.498 171.35 204.798C172.05 187.998 177.25 172.798 177.25 172.798C189.95 145.398 221.75 151.598 230.75 157.598C239.75 163.598 242.65 179.498 242.65 179.498C242.65 179.498 246.75 179.898 251.25 182.498ZM264.15 203.198C260.15 204.898 258.65 206.698 258.65 206.698C258.65 206.698 260.35 204.598 260.95 201.098C247.45 207.798 248.55 222.098 246.85 222.098C244.75 222.098 243.75 214.898 243.75 214.898C243.75 214.898 241.15 225.198 225.75 232.398C210.35 239.598 192.85 233.898 192.85 233.898C192.85 233.898 196.45 242.098 187.15 241.098C184.05 240.798 181.65 239.698 179.95 238.498C187.45 248.398 197.05 251.998 197.05 251.998C197.05 251.998 182.85 256.998 186.15 264.698C189.35 272.398 201.55 267.398 205.55 264.898C209.55 262.398 214.55 254.898 215.25 249.998C215.95 244.998 215.75 242.298 215.75 242.298C215.75 242.298 231.95 240.598 242.85 231.598C242.85 231.598 252.55 239.298 259.55 237.798C266.55 236.298 276.45 223.898 275.45 212.698C274.55 201.498 268.05 201.498 264.15 203.198Z" fill="white"/>
</g>
<mask id="mask7_310_15416" style="mask-type:luminance" maskUnits="userSpaceOnUse" x="171" y="152" width="105" height="117">
<path d="M177.249 172.898C177.249 172.898 167.549 200.998 172.749 222.898C178.049 244.798 197.149 251.998 197.149 251.998C197.149 251.998 182.949 256.998 186.249 264.698C189.449 272.398 201.649 267.398 205.649 264.898C209.649 262.398 214.649 254.898 215.349 249.998C216.049 244.998 215.849 242.298 215.849 242.298C215.849 242.298 232.049 240.598 242.949 231.598C242.949 231.598 252.649 239.298 259.649 237.798C266.649 236.298 276.549 223.898 275.549 212.698C274.549 201.498 268.049 201.498 264.149 203.198C260.149 204.898 258.649 206.698 258.649 206.698C258.649 206.698 264.349 199.698 258.649 189.998C252.949 180.298 242.749 179.498 242.749 179.498C242.749 179.498 239.749 163.598 230.849 157.598C221.849 151.698 189.949 145.498 177.249 172.898Z" fill="white"/>
</mask>
<g mask="url(#mask7_310_15416)">
<path d="M215.849 242.298C215.849 242.298 199.249 243.598 187.649 229.398" stroke="black" stroke-width="1.1133" stroke-miterlimit="10" stroke-linecap="round" stroke-linejoin="round"/>
</g>
<path d="M177.249 172.898C177.249 172.898 167.549 200.998 172.749 222.898C178.049 244.798 197.149 251.998 197.149 251.998C197.149 251.998 182.949 256.998 186.249 264.698C189.449 272.398 201.649 267.398 205.649 264.898C209.649 262.398 214.649 254.898 215.349 249.998C216.049 244.998 215.849 242.298 215.849 242.298C215.849 242.298 232.049 240.598 242.949 231.598C242.949 231.598 252.649 239.298 259.649 237.798C266.649 236.298 276.549 223.898 275.549 212.698C274.549 201.498 268.049 201.498 264.149 203.198C260.149 204.898 258.649 206.698 258.649 206.698C258.649 206.698 264.349 199.698 258.649 189.998C252.949 180.298 242.749 179.498 242.749 179.498C242.749 179.498 239.749 163.598 230.849 157.598C221.849 151.698 189.949 145.498 177.249 172.898Z" stroke="black" stroke-width="1.1133" stroke-miterlimit="10" stroke-linecap="round" stroke-linejoin="round"/>
<path d="M258.649 206.699C258.649 206.699 253.449 210.199 250.949 220.899" stroke="black" stroke-width="1.1133" stroke-miterlimit="10" stroke-linecap="round" stroke-linejoin="round"/>
<path d="M268.25 211.297C267.65 213.097 265.95 214.197 264.55 213.697C263.15 213.197 262.45 211.297 263.05 209.497C263.65 207.697 265.35 206.597 266.75 207.097C268.15 207.597 268.85 209.497 268.25 211.297Z" fill="white" stroke="black" stroke-width="1.1133" stroke-miterlimit="10" stroke-linecap="round" stroke-linejoin="round"/>
<path d="M273.349 214.497C272.749 216.297 271.049 217.397 269.649 216.897C268.249 216.397 267.549 214.497 268.149 212.697C268.749 210.897 270.449 209.797 271.849 210.297C273.349 210.797 273.949 212.697 273.349 214.497Z" fill="white" stroke="black" stroke-width="1.1133" stroke-miterlimit="10" stroke-linecap="round" stroke-linejoin="round"/>
<path d="M274.45 219.399C274.05 220.699 272.75 221.499 271.75 221.199C270.75 220.799 270.25 219.499 270.65 218.199C271.05 216.899 272.35 216.099 273.35 216.399C274.45 216.699 274.95 217.999 274.45 219.399Z" fill="white" stroke="black" stroke-width="1.1133" stroke-miterlimit="10" stroke-linecap="round" stroke-linejoin="round"/>
<path d="M267.949 225.999C266.149 229.199 262.549 230.699 259.949 229.199C257.349 227.699 256.649 223.899 258.449 220.699C260.249 217.499 263.849 215.999 266.449 217.499C269.049 218.999 269.749 222.799 267.949 225.999Z" fill="white" stroke="black" stroke-width="1.1133" stroke-miterlimit="10" stroke-linecap="round" stroke-linejoin="round"/>
<path d="M197.149 252C197.149 252 201.649 254.5 207.849 252.7" stroke="black" stroke-width="1.1133" stroke-miterlimit="10" stroke-linecap="round" stroke-linejoin="round"/>
<path d="M186.249 264.7C186.249 264.7 187.249 260.5 193.449 257.5" stroke="black" stroke-width="1.1133" stroke-miterlimit="10" stroke-linecap="round" stroke-linejoin="round"/>
<path d="M192.449 268.399C192.449 268.399 194.949 262.399 199.149 259.699" stroke="black" stroke-width="1.1133" stroke-miterlimit="10" stroke-linecap="round" stroke-linejoin="round"/>
</g>
<path d="M131.45 173.4H15.2498V151.2L78.8498 67H87.2498V98.4H84.0498L45.6498 148.6H131.45V173.4ZM110.85 201H82.2498V67H110.85V201ZM197.087 202.8C184.287 202.8 173.487 199.867 164.687 194C155.887 188 149.154 179.8 144.487 169.4C139.954 159 137.687 147.133 137.687 133.8C137.687 120.467 139.954 108.667 144.487 98.4C149.154 88 155.887 79.8667 164.687 74C173.487 68 184.287 65 197.087 65C209.754 65 220.487 68 229.287 74C238.221 79.8667 244.954 88 249.487 98.4C254.021 108.667 256.287 120.467 256.287 133.8C256.287 147.133 254.021 159 249.487 169.4C244.954 179.8 238.221 188 229.287 194C220.487 199.867 209.754 202.8 197.087 202.8ZM197.087 175C204.021 175 209.621 173.333 213.887 170C218.154 166.667 221.287 161.867 223.287 155.6C225.287 149.333 226.287 142.067 226.287 133.8C226.287 125.4 225.287 118.133 223.287 112C221.287 105.867 218.154 101.133 213.887 97.8C209.621 94.3333 204.021 92.6 197.087 92.6C190.154 92.6 184.554 94.3333 180.287 97.8C176.021 101.133 172.887 105.867 170.887 112C168.887 118.133 167.887 125.4 167.887 133.8C167.887 142.067 168.887 149.333 170.887 155.6C172.887 161.867 176.021 166.667 180.287 170C184.554 173.333 190.154 175 197.087 175ZM380.09 173.4H263.89V151.2L327.49 67H335.89V98.4H332.69L294.29 148.6H380.09V173.4ZM359.49 201H330.89V67H359.49V201Z" fill="#FE6A00"/>
<g clip-path="url(#clip3_310_15416)">
<path d="M157.149 158.696C157.149 158.696 146.649 173.396 145.249 188.296C143.749 203.196 145.449 213.196 149.949 216.896C154.449 220.596 158.949 219.096 161.349 215.696C163.849 212.196 159.849 199.996 159.849 199.996C159.849 199.996 164.049 188.296 170.549 180.096C177.049 171.896 178.249 170.596 178.249 170.596C178.249 170.596 167.049 157.896 157.149 158.696Z" fill="white"/>
<mask id="mask8_310_15416" style="mask-type:luminance" maskUnits="userSpaceOnUse" x="144" y="158" width="35" height="62">
<path d="M157.149 158.696C157.149 158.696 146.649 173.396 145.249 188.296C143.749 203.196 145.449 213.196 149.949 216.896C154.449 220.596 158.949 219.096 161.349 215.696C163.849 212.196 159.849 199.996 159.849 199.996C159.849 199.996 164.049 188.296 170.549 180.096C177.049 171.896 178.249 170.596 178.249 170.596C178.249 170.596 167.049 157.896 157.149 158.696Z" fill="white"/>
</mask>
<g mask="url(#mask8_310_15416)">
<path d="M157.15 158.696C157.15 158.696 154.05 162.996 151.05 169.296C156.05 171.296 163.85 175.396 168.75 182.696C169.35 181.796 169.95 180.996 170.65 180.196C177.15 171.996 178.35 170.696 178.35 170.696C178.35 170.696 167.05 157.896 157.15 158.696Z" fill="#CCDCF6"/>
</g>
<mask id="mask9_310_15416" style="mask-type:luminance" maskUnits="userSpaceOnUse" x="144" y="158" width="35" height="62">
<path d="M157.149 158.696C157.149 158.696 146.649 173.396 145.249 188.296C143.749 203.196 145.449 213.196 149.949 216.896C154.449 220.596 158.949 219.096 161.349 215.696C163.849 212.196 159.849 199.996 159.849 199.996C159.849 199.996 164.049 188.296 170.549 180.096C177.049 171.896 178.249 170.596 178.249 170.596C178.249 170.596 167.049 157.896 157.149 158.696Z" fill="white"/>
</mask>
<g mask="url(#mask9_310_15416)">
<path opacity="0.5" d="M157.15 158.696C157.15 158.696 154.05 162.996 151.05 169.296C156.05 171.296 163.85 175.396 168.75 182.696C169.35 181.796 169.95 180.996 170.65 180.196C177.15 171.996 178.35 170.696 178.35 170.696C178.35 170.696 167.05 157.896 157.15 158.696Z" fill="white"/>
</g>
<path d="M157.149 158.696C157.149 158.696 146.649 173.396 145.249 188.296C143.749 203.196 145.449 213.196 149.949 216.896C154.449 220.596 158.949 219.096 161.349 215.696C163.849 212.196 159.849 199.996 159.849 199.996C159.849 199.996 164.049 188.296 170.549 180.096C177.049 171.896 178.249 170.596 178.249 170.596C178.249 170.596 167.049 157.896 157.149 158.696Z" stroke="black" stroke-width="1.1133" stroke-miterlimit="10" stroke-linecap="round" stroke-linejoin="round"/>
<path d="M149.849 216.895C149.849 216.895 148.149 212.895 148.149 206.695" stroke="black" stroke-width="1.1133" stroke-miterlimit="10" stroke-linecap="round" stroke-linejoin="round"/>
<path d="M156.649 218.396C156.649 218.396 154.149 214.196 153.949 206.996" stroke="black" stroke-width="1.1133" stroke-miterlimit="10" stroke-linecap="round" stroke-linejoin="round"/>
<path d="M160.35 185.297C160.35 182.697 155.35 177.597 148.35 175.297C147.45 177.697 146.65 180.197 146.05 182.797C147.95 183.197 151.25 183.897 153.85 185.297C157.65 187.297 160.35 188.297 160.35 185.297Z" fill="#CCDCF6" stroke="black" stroke-width="1.1133" stroke-miterlimit="10" stroke-linecap="round" stroke-linejoin="round"/>
<path d="M156.549 159.598C155.649 160.898 153.949 163.598 152.149 167.198C153.949 167.698 156.049 168.498 158.149 169.698C165.849 174.198 167.349 174.698 164.849 168.198C163.249 164.098 159.749 161.298 156.549 159.598Z" fill="#CCDCF6" stroke="black" stroke-width="1.1133" stroke-miterlimit="10" stroke-linecap="round" stroke-linejoin="round"/>
<path d="M238.95 151.398C238.95 151.398 250.75 164.998 253.75 179.698C256.75 194.398 255.95 204.498 251.85 208.598C247.75 212.798 243.15 211.698 240.35 208.498C237.55 205.298 240.25 192.798 240.25 192.798C240.25 192.798 234.95 181.598 227.65 173.998C220.45 166.498 219.05 165.298 219.05 165.298C219.05 165.298 228.95 151.698 238.95 151.398Z" fill="white"/>
<mask id="mask10_310_15416" style="mask-type:luminance" maskUnits="userSpaceOnUse" x="219" y="151" width="37" height="61">
<path d="M238.95 151.398C238.95 151.398 250.75 164.998 253.75 179.698C256.75 194.398 255.95 204.498 251.85 208.598C247.75 212.798 243.15 211.698 240.35 208.498C237.55 205.298 240.25 192.798 240.25 192.798C240.25 192.798 234.95 181.598 227.65 173.998C220.45 166.498 219.05 165.298 219.05 165.298C219.05 165.298 228.95 151.698 238.95 151.398Z" fill="white"/>
</mask>
<g mask="url(#mask10_310_15416)">
<path d="M238.95 151.398C228.95 151.598 219.05 165.398 219.05 165.398C219.05 165.398 220.45 166.498 227.65 174.098C228.95 175.498 230.25 176.998 231.45 178.598C233.95 174.398 238.95 167.698 247.15 163.298C243.15 156.198 238.95 151.398 238.95 151.398Z" fill="#CCDCF6"/>
</g>
<mask id="mask11_310_15416" style="mask-type:luminance" maskUnits="userSpaceOnUse" x="219" y="151" width="37" height="61">
<path d="M238.95 151.398C238.95 151.398 250.75 164.998 253.75 179.698C256.75 194.398 255.95 204.498 251.85 208.598C247.75 212.798 243.15 211.698 240.35 208.498C237.55 205.298 240.25 192.798 240.25 192.798C240.25 192.798 234.95 181.598 227.65 173.998C220.45 166.498 219.05 165.298 219.05 165.298C219.05 165.298 228.95 151.698 238.95 151.398Z" fill="white"/>
</mask>
<g mask="url(#mask11_310_15416)">
<path opacity="0.5" d="M238.95 151.398C228.95 151.598 219.05 165.398 219.05 165.398C219.05 165.398 220.45 166.498 227.65 174.098C228.95 175.498 230.25 176.998 231.45 178.598C233.95 174.398 238.95 167.698 247.15 163.298C243.15 156.198 238.95 151.398 238.95 151.398Z" fill="white"/>
</g>
<path d="M238.95 151.398C238.95 151.398 250.75 164.998 253.75 179.698C256.75 194.398 255.95 204.498 251.85 208.598C247.75 212.798 243.15 211.698 240.35 208.498C237.55 205.298 240.25 192.798 240.25 192.798C240.25 192.798 234.95 181.598 227.65 173.998C220.45 166.498 219.05 165.298 219.05 165.298C219.05 165.298 228.95 151.698 238.95 151.398Z" stroke="black" stroke-width="1.1133" stroke-miterlimit="10" stroke-linecap="round" stroke-linejoin="round"/>
<path d="M251.85 208.698C251.85 208.698 253.15 204.598 252.55 198.398" stroke="black" stroke-width="1.1133" stroke-miterlimit="10" stroke-linecap="round" stroke-linejoin="round"/>
<path d="M245.35 210.798C245.35 210.798 247.45 206.298 246.95 199.098" stroke="black" stroke-width="1.1133" stroke-miterlimit="10" stroke-linecap="round" stroke-linejoin="round"/>
<path d="M238.35 178.198C238.05 175.598 242.55 169.998 249.25 167.098C250.35 169.398 251.45 171.798 252.25 174.298C250.45 174.798 247.15 175.898 244.75 177.498C241.25 179.998 238.65 181.198 238.35 178.198Z" fill="#CCDCF6" stroke="black" stroke-width="1.1133" stroke-miterlimit="10" stroke-linecap="round" stroke-linejoin="round"/>
<path d="M239.65 152.297C240.65 153.497 242.65 155.997 244.75 159.397C243.05 159.997 241.05 160.997 239.05 162.397C231.85 167.597 230.35 168.297 232.25 161.597C233.35 157.397 236.65 154.297 239.65 152.297Z" fill="#CCDCF6" stroke="black" stroke-width="1.1133" stroke-miterlimit="10" stroke-linecap="round" stroke-linejoin="round"/>
<path d="M156.149 145.998C156.149 145.998 153.049 156.398 154.249 160.598C155.449 164.798 160.749 160.998 166.149 165.598C171.549 170.198 176.549 178.498 196.949 180.098C217.349 181.598 229.649 170.598 233.949 164.498C238.149 158.298 237.749 150.998 245.149 150.598C252.449 150.198 246.349 135.998 243.949 133.698C243.949 133.698 258.149 112.498 258.149 107.098C258.149 101.698 244.649 102.898 228.149 107.898C228.149 107.898 215.849 101.398 193.549 105.198C171.149 108.998 164.649 115.598 164.649 115.598C164.649 115.598 136.849 118.998 134.949 122.498C133.049 125.998 138.849 140.598 156.149 145.998Z" fill="white"/>
<mask id="mask12_310_15416" style="mask-type:luminance" maskUnits="userSpaceOnUse" x="134" y="103" width="125" height="78">
<path d="M156.149 145.998C156.149 145.998 153.049 156.398 154.249 160.598C155.449 164.798 160.749 160.998 166.149 165.598C171.549 170.198 176.549 178.498 196.949 180.098C217.349 181.598 229.649 170.598 233.949 164.498C238.149 158.298 237.749 150.998 245.149 150.598C252.449 150.198 246.349 135.998 243.949 133.698C243.949 133.698 258.149 112.498 258.149 107.098C258.149 101.698 244.649 102.898 228.149 107.898C228.149 107.898 215.849 101.398 193.549 105.198C171.149 108.998 164.649 115.598 164.649 115.598C164.649 115.598 136.849 118.998 134.949 122.498C133.049 125.998 138.849 140.598 156.149 145.998Z" fill="white"/>
</mask>
<g mask="url(#mask12_310_15416)">
<path d="M245.05 150.597C252.35 150.197 246.25 135.997 243.85 133.697C243.85 133.697 246.55 129.697 249.65 124.697C241.35 120.397 233.25 117.997 231.05 120.397C226.45 125.597 228.95 135.597 231.05 145.297C233.15 154.997 224.75 159.297 218.75 167.697C212.85 176.197 204.35 166.897 204.35 166.897C201.35 179.197 188.75 171.097 188.75 171.097C179.05 168.097 162.55 158.397 165.95 151.597C169.35 144.797 170.15 138.497 164.25 132.997C158.35 127.497 134.75 122.997 134.75 122.997C133.55 127.197 139.55 140.797 156.15 145.997C156.15 145.997 153.05 156.397 154.25 160.597C155.45 164.797 160.75 160.997 166.15 165.597C171.55 170.197 176.55 178.497 196.95 180.097C217.35 181.597 229.65 170.597 233.95 164.497C238.15 158.297 237.75 150.997 245.05 150.597Z" fill="#CCDCF6"/>
</g>
<mask id="mask13_310_15416" style="mask-type:luminance" maskUnits="userSpaceOnUse" x="134" y="103" width="125" height="78">
<path d="M156.149 145.998C156.149 145.998 153.049 156.398 154.249 160.598C155.449 164.798 160.749 160.998 166.149 165.598C171.549 170.198 176.549 178.498 196.949 180.098C217.349 181.598 229.649 170.598 233.949 164.498C238.149 158.298 237.749 150.998 245.149 150.598C252.449 150.198 246.349 135.998 243.949 133.698C243.949 133.698 258.149 112.498 258.149 107.098C258.149 101.698 244.649 102.898 228.149 107.898C228.149 107.898 215.849 101.398 193.549 105.198C171.149 108.998 164.649 115.598 164.649 115.598C164.649 115.598 136.849 118.998 134.949 122.498C133.049 125.998 138.849 140.598 156.149 145.998Z" fill="white"/>
</mask>
<g mask="url(#mask13_310_15416)">
<path opacity="0.5" d="M245.05 150.597C252.35 150.197 246.25 135.997 243.85 133.697C243.85 133.697 246.55 129.697 249.65 124.697C241.35 120.397 233.25 117.997 231.05 120.397C226.45 125.597 228.95 135.597 231.05 145.297C233.15 154.997 224.75 159.297 218.75 167.697C212.85 176.197 204.35 166.897 204.35 166.897C201.35 179.197 188.75 171.097 188.75 171.097C179.05 168.097 162.55 158.397 165.95 151.597C169.35 144.797 170.15 138.497 164.25 132.997C158.35 127.497 134.75 122.997 134.75 122.997C133.55 127.197 139.55 140.797 156.15 145.997C156.15 145.997 153.05 156.397 154.25 160.597C155.45 164.797 160.75 160.997 166.15 165.597C171.55 170.197 176.55 178.497 196.95 180.097C217.35 181.597 229.65 170.597 233.95 164.497C238.15 158.297 237.75 150.997 245.05 150.597Z" fill="white"/>
</g>
<mask id="mask14_310_15416" style="mask-type:luminance" maskUnits="userSpaceOnUse" x="134" y="103" width="125" height="78">
<path d="M156.149 145.998C156.149 145.998 153.049 156.398 154.249 160.598C155.449 164.798 160.749 160.998 166.149 165.598C171.549 170.198 176.549 178.498 196.949 180.098C217.349 181.598 229.649 170.598 233.949 164.498C238.149 158.298 237.749 150.998 245.149 150.598C252.449 150.198 246.349 135.998 243.949 133.698C243.949 133.698 258.149 112.498 258.149 107.098C258.149 101.698 244.649 102.898 228.149 107.898C228.149 107.898 215.849 101.398 193.549 105.198C171.149 108.998 164.649 115.598 164.649 115.598C164.649 115.598 136.849 118.998 134.949 122.498C133.049 125.998 138.849 140.598 156.149 145.998Z" fill="white"/>
</mask>
<g mask="url(#mask14_310_15416)">
<path d="M214.949 152.898C215.249 155.298 209.849 157.998 202.849 158.798C195.849 159.598 190.049 158.298 189.749 155.898C189.449 153.498 194.849 150.798 201.849 149.998C208.749 149.198 214.649 150.498 214.949 152.898Z" fill="#CCDCF6"/>
</g>
<mask id="mask15_310_15416" style="mask-type:luminance" maskUnits="userSpaceOnUse" x="134" y="103" width="125" height="78">
<path d="M156.149 145.998C156.149 145.998 153.049 156.398 154.249 160.598C155.449 164.798 160.749 160.998 166.149 165.598C171.549 170.198 176.549 178.498 196.949 180.098C217.349 181.598 229.649 170.598 233.949 164.498C238.149 158.298 237.749 150.998 245.149 150.598C252.449 150.198 246.349 135.998 243.949 133.698C243.949 133.698 258.149 112.498 258.149 107.098C258.149 101.698 244.649 102.898 228.149 107.898C228.149 107.898 215.849 101.398 193.549 105.198C171.149 108.998 164.649 115.598 164.649 115.598C164.649 115.598 136.849 118.998 134.949 122.498C133.049 125.998 138.849 140.598 156.149 145.998Z" fill="white"/>
</mask>
<g mask="url(#mask15_310_15416)">
<path opacity="0.5" d="M214.949 152.898C215.249 155.298 209.849 157.998 202.849 158.798C195.849 159.598 190.049 158.298 189.749 155.898C189.449 153.498 194.849 150.798 201.849 149.998C208.749 149.198 214.649 150.498 214.949 152.898Z" fill="white"/>
</g>
<path d="M156.149 145.998C156.149 145.998 153.049 156.398 154.249 160.598C155.449 164.798 160.749 160.998 166.149 165.598C171.549 170.198 176.549 178.498 196.949 180.098C217.349 181.598 229.649 170.598 233.949 164.498C238.149 158.298 237.749 150.998 245.149 150.598C252.449 150.198 246.349 135.998 243.949 133.698C243.949 133.698 258.149 112.498 258.149 107.098C258.149 101.698 244.649 102.898 228.149 107.898C228.149 107.898 215.849 101.398 193.549 105.198C171.149 108.998 164.649 115.598 164.649 115.598C164.649 115.598 136.849 118.998 134.949 122.498C133.049 125.998 138.849 140.598 156.149 145.998Z" stroke="black" stroke-width="1.1133" stroke-miterlimit="10"/>
<path d="M235.75 115.098C225.75 121.798 229.25 128.498 233.75 132.298C236.45 134.598 240.85 134.298 243.85 133.698C243.85 133.698 258.05 112.498 258.05 107.098C258.15 107.098 245.75 108.398 235.75 115.098Z" fill="#CCDCF6" stroke="black" stroke-width="1.1133" stroke-miterlimit="10"/>
<path d="M134.75 122.998C133.55 127.198 139.55 140.798 156.15 145.998C156.15 145.998 168.85 144.798 164.55 134.598C160.65 124.998 140.65 122.698 134.75 122.998Z" fill="#CCDCF6" stroke="black" stroke-width="1.1133" stroke-miterlimit="10"/>
<path d="M193.449 105.2C192.149 105.4 190.849 105.7 189.649 105.9C191.649 116 194.949 132.8 197.849 132.8C200.849 132.8 203.049 114.4 203.949 104C200.849 104.2 197.349 104.5 193.449 105.2Z" fill="#CCDCF6" stroke="black" stroke-width="1.1133" stroke-miterlimit="10"/>
<path d="M181.95 129.802C185.05 128.002 184.65 114.502 184.15 107.102C180.45 108.002 177.35 109.002 174.85 110.002C175.95 116.902 178.75 131.702 181.95 129.802Z" fill="#CCDCF6" stroke="black" stroke-width="1.1133" stroke-miterlimit="10"/>
<path d="M211.65 123.6C214.75 124.7 216.55 113.4 217.55 104.8C214.75 104.3 211.55 104 207.95 104C207.85 111.1 208.25 122.4 211.65 123.6Z" fill="#CCDCF6" stroke="black" stroke-width="1.1133" stroke-miterlimit="10"/>
<path d="M207.45 162.501C205.75 162.101 202.15 161.601 198.75 163.601C198.25 163.901 198.15 164.601 198.55 165.001L203.85 170.001C204.25 170.401 204.95 170.301 205.25 169.701L207.95 163.701C208.25 163.201 207.95 162.701 207.45 162.501Z" fill="#CCDCF6" stroke="black" stroke-width="1.1133" stroke-miterlimit="10" stroke-linecap="round" stroke-linejoin="round"/>
<path d="M194.749 154.198C195.449 156.098 195.149 157.998 194.149 158.398C193.049 158.798 191.549 157.598 190.849 155.698C190.149 153.798 190.449 151.898 191.449 151.498C192.549 150.998 194.049 152.298 194.749 154.198Z" fill="black"/>
<path d="M209.249 152.798C208.849 154.798 209.449 156.598 210.649 156.898C211.749 157.098 213.049 155.598 213.449 153.598C213.849 151.598 213.249 149.798 212.049 149.498C210.949 149.298 209.649 150.798 209.249 152.798Z" fill="black"/>
<path d="M205.249 169.702C205.249 169.702 198.149 179.302 191.649 169.602" stroke="black" stroke-width="1.1133" stroke-miterlimit="10" stroke-linecap="round" stroke-linejoin="round"/>
<path d="M203.949 169.999C203.949 169.999 208.649 174.899 213.649 172.199C218.649 169.499 215.649 165.199 215.649 165.199" stroke="black" stroke-width="1.1133" stroke-miterlimit="10" stroke-linecap="round" stroke-linejoin="round"/>
<path d="M182.25 146.5C182.25 146.5 183.95 140.3 192.25 141.8" stroke="black" stroke-width="3.3399" stroke-miterlimit="10" stroke-linecap="round" stroke-linejoin="round"/>
<path d="M207.149 140.802C207.149 140.802 213.349 137.102 219.049 143.002" stroke="black" stroke-width="3.3399" stroke-miterlimit="10" stroke-linecap="round" stroke-linejoin="round"/>
<path d="M177.55 163.199L183.45 164.699" stroke="black" stroke-width="1.1133" stroke-miterlimit="10" stroke-linecap="round"/>
<path d="M182.75 166.898L177.55 167.898" stroke="black" stroke-width="1.1133" stroke-miterlimit="10" stroke-linecap="round"/>
<path d="M183.75 169.602L180.05 171.602" stroke="black" stroke-width="1.1133" stroke-miterlimit="10" stroke-linecap="round"/>
<path d="M221.55 160.399L226.75 159.199" stroke="black" stroke-width="1.1133" stroke-miterlimit="10" stroke-linecap="round"/>
<path d="M222.55 162.898H226.05" stroke="black" stroke-width="1.1133" stroke-miterlimit="10" stroke-linecap="round"/>
<path d="M223.35 165.398L228.05 166.598" stroke="black" stroke-width="1.1133" stroke-miterlimit="10" stroke-linecap="round"/>
<path d="M310.45 191C310.45 191 308.05 183 300.85 180.2C295.85 178.2 290.15 178.7 285.05 179.6C275.45 181.3 267.15 185.1 258.05 188.3C258.05 188.3 261.95 186.9 277.85 194.6C283.75 197.5 290.45 199.7 297.15 199.5C302.45 199.5 310.75 198 310.45 191Z" fill="#CCDCF6"/>
<path d="M311.35 167.702C311.35 167.702 311.35 159.402 305.25 154.602C301.05 151.302 295.45 150.102 290.25 149.502C280.55 148.302 271.45 149.602 261.85 150.102C261.85 150.102 265.95 149.902 278.95 161.902C283.75 166.302 289.55 170.402 295.95 172.202C301.25 173.502 309.55 174.402 311.35 167.702Z" fill="#CCDCF6"/>
<path d="M327.85 198.598C327.85 198.598 321.35 193.398 321.35 185.698C321.35 180.398 323.95 175.198 326.65 170.798C331.75 162.498 338.35 156.098 344.75 148.898C344.75 148.898 341.95 151.998 343.35 169.598C343.85 176.098 343.45 183.098 340.85 189.298C338.65 194.298 334.15 201.398 327.85 198.598Z" fill="#CCDCF6"/>
<path d="M350.75 211.399C350.75 211.399 349.85 203.099 355.25 197.699C359.05 193.899 364.45 192.099 369.55 190.899C379.05 188.599 388.15 188.799 397.85 188.199C397.85 188.199 393.75 188.399 382.25 201.899C378.05 206.899 372.75 211.499 366.55 214.099C361.55 215.999 353.35 217.799 350.75 211.399Z" fill="#CCDCF6"/>
<path d="M349.25 181.902C349.25 181.902 341.05 180.802 337.05 174.202C334.25 169.602 333.85 163.902 333.95 158.702C334.05 149.002 336.45 140.102 338.25 130.602C338.25 130.602 337.45 134.702 347.65 149.102C351.45 154.402 354.65 160.702 355.65 167.302C356.35 172.602 356.15 181.002 349.25 181.902Z" fill="#CCDCF6"/>
<path d="M373.05 167.102C373.05 167.102 378.95 172.902 386.65 172.102C391.95 171.502 396.75 168.302 400.85 165.102C408.45 159.102 414.05 151.802 420.45 144.602C420.45 144.602 417.75 147.702 400.05 148.402C393.55 148.702 386.55 149.902 380.75 153.202C376.05 155.802 369.55 161.102 373.05 167.102Z" fill="#CCDCF6"/>
<path d="M366.15 161.3C366.15 161.3 374.45 162.1 379.85 156.7C383.65 152.9 385.35 147.4 386.55 142.3C388.75 132.8 388.45 123.6 388.95 114C388.95 114 388.75 118.1 375.45 129.8C370.55 134.1 365.85 139.4 363.45 145.6C361.45 150.6 359.65 158.8 366.15 161.3Z" fill="#CCDCF6"/>
<path d="M336.55 241.9L322.25 206.7L305.75 166" stroke="black" stroke-width="1.1133" stroke-miterlimit="10" stroke-linecap="round" stroke-linejoin="round"/>
<path d="M339.85 235.899L354.15 186.899L369.55 156.699" stroke="black" stroke-width="1.1133" stroke-miterlimit="10" stroke-linecap="round" stroke-linejoin="round"/>
<path d="M345.35 216.598L359.65 208.398" stroke="black" stroke-width="1.1133" stroke-miterlimit="10" stroke-linecap="round" stroke-linejoin="round"/>
<path d="M354.15 186.9L347.05 171" stroke="black" stroke-width="1.1133" stroke-miterlimit="10" stroke-linecap="round" stroke-linejoin="round"/>
<path d="M363.149 171.101L380.549 163.301" stroke="black" stroke-width="1.1133" stroke-miterlimit="10" stroke-linecap="round" stroke-linejoin="round"/>
<path d="M325.05 213.302L331.05 189.102" stroke="black" stroke-width="1.1133" stroke-miterlimit="10" stroke-linecap="round" stroke-linejoin="round"/>
<path d="M317.05 194.9L303.05 187.5" stroke="black" stroke-width="1.1133" stroke-miterlimit="10" stroke-linecap="round" stroke-linejoin="round"/>
<path d="M343.949 259.498H332.049C328.049 259.498 324.549 256.598 323.849 252.698L319.649 230.398H356.449L352.249 252.698C351.349 256.598 347.949 259.498 343.949 259.498Z" fill="black" stroke="black" stroke-width="1.1133" stroke-miterlimit="10" stroke-linecap="round" stroke-linejoin="round"/>
</g>
<defs>
<filter id="filter0_d_310_15416" x="236.619" y="253.418" width="73.0191" height="74.1223" filterUnits="userSpaceOnUse" color-interpolation-filters="sRGB">
<feFlood flood-opacity="0" result="BackgroundImageFix"/>
<feColorMatrix in="SourceAlpha" type="matrix" values="0 0 0 0 0 0 0 0 0 0 0 0 0 0 0 0 0 0 127 0" result="hardAlpha"/>
<feOffset dx="1.10606" dy="2.21212"/>
<feComposite in2="hardAlpha" operator="out"/>
<feColorMatrix type="matrix" values="0 0 0 0 0.996078 0 0 0 0 0.415686 0 0 0 0 0 0 0 0 1 0"/>
<feBlend mode="normal" in2="BackgroundImageFix" result="effect1_dropShadow_310_15416"/>
<feBlend mode="normal" in="SourceGraphic" in2="effect1_dropShadow_310_15416" result="shape"/>
</filter>
<clipPath id="clip0_310_15416">
<rect width="404.9" height="382.6" fill="white" transform="translate(15.0498)"/>
</clipPath>
<clipPath id="clip1_310_15416">
<rect width="73" height="74.1061" fill="white" transform="translate(228.072 264.801) rotate(-16.0943)"/>
</clipPath>
<clipPath id="clip2_310_15416">
<rect width="142.1" height="196" fill="white" transform="translate(134.05 103)"/>
</clipPath>
<clipPath id="clip3_310_15416">
<rect width="411.2" height="186.3" fill="white" transform="translate(0.0498047 108)"/>
</clipPath>
</defs>
</svg>
